ExploreSansVariable_Black Serif Italic.ufo
<glyph name="exclam" format="2">
  <advance width="290"/>
  <unicode hex="0021"/>
  <outline>
    <contour>
      <point x="129.839" y="716" type="line"/>
      <point x="319.839" y="716" type="line"/>
      <point x="163.513" y="244" type="line"/>
      <point x="79.5127" y="244" type="line"/>
    </contour>
    <contour>
      <point x="111.735" y="198" type="curve" smooth="yes"/>
      <point x="167.735" y="198"/>
      <point x="203.745" y="151"/>
      <point x="191.842" y="95" type="curve" smooth="yes"/>
      <point x="179.938" y="39"/>
      <point x="124.161" y="-7"/>
      <point x="68.1611" y="-7" type="curve" smooth="yes"/>
      <point x="12.1611" y="-7"/>
      <point x="-24.0615" y="39"/>
      <point x="-12.1582" y="95" type="curve" smooth="yes"/>
      <point x="-0.254883" y="151"/>
      <point x="55.7354" y="198"/>
    </contour>
  </outline>
</glyph>
<glyph name="dollar" format="2">
  <advance width="674"/>
  <unicode hex="0024"/>
  <outline>
    <contour>
      <point x="408.491" y="864" type="line"/>
      <point x="493.491" y="864" type="line"/>
      <point x="280.509" y="-138" type="line"/>
      <point x="195.509" y="-138" type="line"/>
    </contour>
    <component base="S" xOffset="14.2126" yOffset="1"/>
  </outline>
</glyph>
<glyph name="percent" format="2">
  <advance width="855"/>
  <unicode hex="0025"/>
  <outline>
    <contour>
      <point x="652.245" y="708" type="line"/>
      <point x="762.245" y="708" type="line"/>
      <point x="204.755" y="0" type="line"/>
      <point x="93.7549" y="0" type="line"/>
    </contour>
    <contour>
      <point x="645.275" y="360" type="curve" smooth="yes"/>
      <point x="752.275" y="360"/>
      <point x="808.546" y="286"/>
      <point x="785.165" y="176" type="curve" smooth="yes"/>
      <point x="761.784" y="66"/>
      <point x="674.055" y="-8"/>
      <point x="567.055" y="-8" type="curve" smooth="yes"/>
      <point x="460.055" y="-8"/>
      <point x="403.784" y="66"/>
      <point x="427.165" y="176" type="curve" smooth="yes"/>
      <point x="450.546" y="286"/>
      <point x="538.275" y="360"/>
    </contour>
    <contour>
      <point x="632.521" y="300" type="curve" smooth="yes"/>
      <point x="593.521" y="300"/>
      <point x="564.657" y="263"/>
      <point x="545.74" y="174" type="curve" smooth="yes"/>
      <point x="527.885" y="90"/>
      <point x="540.808" y="52"/>
      <point x="580.808" y="52" type="curve" smooth="yes"/>
      <point x="620.808" y="52"/>
      <point x="647.885" y="90"/>
      <point x="665.74" y="174" type="curve" smooth="yes"/>
      <point x="684.232" y="261"/>
      <point x="671.521" y="300"/>
    </contour>
    <contour>
      <point x="274.192" y="656" type="curve" smooth="yes"/>
      <point x="233.192" y="656"/>
      <point x="206.327" y="619"/>
      <point x="187.622" y="531" type="curve" smooth="yes"/>
      <point x="169.768" y="447"/>
      <point x="181.479" y="408"/>
      <point x="222.479" y="408" type="curve" smooth="yes"/>
      <point x="262.479" y="408"/>
      <point x="289.556" y="446"/>
      <point x="307.835" y="532" type="curve" smooth="yes"/>
      <point x="326.115" y="618"/>
      <point x="314.192" y="656"/>
    </contour>
    <contour>
      <point x="287.945" y="716" type="curve" smooth="yes"/>
      <point x="394.945" y="716"/>
      <point x="450.642" y="644"/>
      <point x="427.26" y="534" type="curve" smooth="yes"/>
      <point x="403.879" y="424"/>
      <point x="314.725" y="348"/>
      <point x="207.725" y="348" type="curve" smooth="yes"/>
      <point x="101.725" y="348"/>
      <point x="46.666" y="423"/>
      <point x="70.2598" y="534" type="curve" smooth="yes"/>
      <point x="93.4287" y="643"/>
      <point x="179.945" y="716"/>
    </contour>
  </outline>
</glyph>
<glyph name="ampersand" format="2">
  <advance width="792"/>
  <unicode hex="0026"/>
  <outline>
    <contour>
      <point x="244.941" y="429" type="curve"/>
      <point x="271.951" y="382" type="line"/>
      <point x="219.575" y="352"/>
      <point x="193.372" y="304"/>
      <point x="180.406" y="243" type="curve" smooth="yes"/>
      <point x="156.388" y="130"/>
      <point x="204.934" y="62"/>
      <point x="314.934" y="62" type="curve" smooth="yes"/>
      <point x="467.934" y="62"/>
      <point x="584.106" y="251"/>
      <point x="609.613" y="371" type="curve"/>
      <point x="681.488" y="361" type="line"/>
      <point x="651.093" y="218"/>
      <point x="506.055" y="-8"/>
      <point x="266.055" y="-8" type="curve" smooth="yes"/>
      <point x="65.0547" y="-8"/>
      <point x="-30.0664" y="62"/>
      <point x="3.09277" y="218" type="curve" smooth="yes"/>
      <point x="32.2129" y="355"/>
      <point x="153.941" y="429"/>
    </contour>
    <contour>
      <point x="542.517" y="427" type="line"/>
      <point x="769.353" y="398" type="line"/>
      <point x="755.324" y="332" type="line"/>
      <point x="529.126" y="364" type="line"/>
    </contour>
    <contour>
      <point x="491.945" y="716" type="curve" smooth="yes"/>
      <point x="570.945" y="716"/>
      <point x="623.757" y="701"/>
      <point x="674.743" y="668" type="curve"/>
      <point x="649.023" y="547" type="line"/>
      <point x="504.023" y="547" type="line"/>
      <point x="526.555" y="653" type="line"/>
      <point x="518.555" y="653"/>
      <point x="501.555" y="653"/>
      <point x="492.555" y="653" type="curve" smooth="yes"/>
      <point x="433.555" y="653"/>
      <point x="394.391" y="624"/>
      <point x="382.062" y="566" type="curve" smooth="yes"/>
      <point x="371.435" y="516"/>
      <point x="376.145" y="477"/>
      <point x="418.903" y="410" type="curve" smooth="yes"/>
      <point x="648.658" y="56" type="line"/>
      <point x="696.658" y="56" type="line"/>
      <point x="684.755" y="0" type="line"/>
      <point x="496.755" y="0" type="line"/>
      <point x="256.526" y="380" type="line" smooth="yes"/>
      <point x="221.43" y="436"/>
      <point x="212.907" y="490"/>
      <point x="222.897" y="537" type="curve" smooth="yes"/>
      <point x="247.979" y="655"/>
      <point x="352.945" y="716"/>
    </contour>
  </outline>
</glyph>
<glyph name="parenleft" format="2">
  <advance width="338"/>
  <unicode hex="0028"/>
  <outline>
    <contour>
      <point x="321.824" y="800" type="curve"/>
      <point x="391.124" y="792" type="line"/>
      <point x="313.293" y="694"/>
      <point x="251.612" y="592"/>
      <point x="204.638" y="371" type="curve" smooth="yes"/>
      <point x="157.237" y="148"/>
      <point x="168.644" y="37"/>
      <point x="210.876" y="-56" type="curve"/>
      <point x="143.176" y="-64" type="line"/>
      <point x="50.5186" y="27"/>
      <point x="-3.81055" y="176"/>
      <point x="37.6377" y="371" type="curve" smooth="yes"/>
      <point x="75.2598" y="548"/>
      <point x="198.757" y="715"/>
    </contour>
  </outline>
</glyph>
<glyph name="parenright" format="2">
  <advance width="338"/>
  <unicode hex="0029"/>
  <outline>
    <contour>
      <point x="199.824" y="800" type="curve"/>
      <point x="127.124" y="792" type="line"/>
      <point x="163.293" y="694"/>
      <point x="173.961" y="556"/>
      <point x="134.425" y="370" type="curve" smooth="yes"/>
      <point x="94.8896" y="184"/>
      <point x="28.6436" y="37"/>
      <point x="-53.124" y="-56" type="curve"/>
      <point x="11.1758" y="-64" type="line"/>
      <point x="142.519" y="27"/>
      <point x="260.189" y="176"/>
      <point x="301.638" y="371" type="curve" smooth="yes"/>
      <point x="339.26" y="548"/>
      <point x="286.757" y="715"/>
    </contour>
  </outline>
</glyph>
<glyph name="asterisk" format="2">
  <advance width="479"/>
  <unicode hex="002A"/>
  <outline>
    <contour>
      <point x="222.811" y="806" type="line"/>
      <point x="337.811" y="806" type="line"/>
      <point x="332.922" y="783" type="line"/>
      <point x="270.802" y="646" type="line"/>
      <point x="412.681" y="716" type="line"/>
      <point x="435.743" y="721" type="line"/>
      <point x="439.425" y="616" type="line"/>
      <point x="414.938" y="609" type="line"/>
      <point x="268.512" y="607" type="line"/>
      <point x="355.981" y="501" type="line"/>
      <point x="361.518" y="480" type="line"/>
      <point x="260.189" y="422" type="line"/>
      <point x="252.078" y="445" type="line"/>
      <point x="228.773" y="580" type="line"/>
      <point x="152.078" y="445" type="line"/>
      <point x="134.189" y="422" type="line"/>
      <point x="59.5176" y="480" type="line"/>
      <point x="74.9814" y="501" type="line"/>
      <point x="203.725" y="608" type="line"/>
      <point x="57.9375" y="609" type="line"/>
      <point x="40.4248" y="616" type="line"/>
      <point x="87.7432" y="721" type="line"/>
      <point x="112.468" y="715" type="line"/>
      <point x="218.802" y="646" type="line"/>
      <point x="217.922" y="783" type="line"/>
    </contour>
  </outline>
</glyph>
<glyph name="comma" format="2">
  <advance width="215"/>
  <unicode hex="002C"/>
  <outline>
    <contour>
      <point x="81.2031" y="-143" type="curve"/>
      <point x="9.20312" y="-143" type="line"/>
      <point x="98.5117" y="9" type="line"/>
      <point x="23.5752" y="14" type="line"/>
      <point x="66.7969" y="175" type="line"/>
      <point x="224.797" y="175" type="line"/>
      <point x="193.126" y="26"/>
      <point x="153.421" y="-62"/>
    </contour>
  </outline>
</glyph>
<glyph name="period" format="2">
  <advance width="252"/>
  <unicode hex="002E"/>
  <outline>
    <contour>
      <point x="147.681" y="196" type="curve" smooth="yes"/>
      <point x="203.681" y="196"/>
      <point x="242.241" y="161"/>
      <point x="228" y="94" type="curve" smooth="yes"/>
      <point x="213.546" y="26"/>
      <point x="160.319" y="-8"/>
      <point x="104.319" y="-8" type="curve" smooth="yes"/>
      <point x="48.3193" y="-8"/>
      <point x="9.5459" y="26"/>
      <point x="24" y="94" type="curve" smooth="yes"/>
      <point x="38.2412" y="161"/>
      <point x="91.6807" y="196"/>
    </contour>
  </outline>
</glyph>
<glyph name="slash" format="2">
  <advance width="392"/>
  <unicode hex="002F"/>
  <outline>
    <contour>
      <point x="393.269" y="772" type="line"/>
      <point x="505.467" y="740" type="line"/>
      <point x="-1.26855" y="-115" type="line"/>
      <point x="-113.467" y="-83" type="line"/>
    </contour>
  </outline>
</glyph>
<glyph name="zero" format="2">
  <advance width="595"/>
  <unicode hex="0030"/>
  <outline>
    <contour>
      <point x="358.96" y="646" type="curve" smooth="yes"/>
      <point x="311.96" y="646"/>
      <point x="261.168" y="567"/>
      <point x="216.744" y="358" type="curve" smooth="yes"/>
      <point x="169.131" y="134"/>
      <point x="188.04" y="63"/>
      <point x="235.04" y="63" type="curve" smooth="yes"/>
      <point x="277.04" y="63"/>
      <point x="333.344" y="135"/>
      <point x="381.169" y="360" type="curve" smooth="yes"/>
      <point x="425.168" y="567"/>
      <point x="400.96" y="646"/>
    </contour>
    <contour>
      <point x="373.839" y="716" type="curve" smooth="yes"/>
      <point x="544.839" y="716"/>
      <point x="623.545" y="597"/>
      <point x="573.169" y="360" type="curve" smooth="yes"/>
      <point x="520.88" y="114"/>
      <point x="408.161" y="-7"/>
      <point x="220.161" y="-7" type="curve" smooth="yes"/>
      <point x="52.1611" y="-7"/>
      <point x="-27.1201" y="114"/>
      <point x="24.5312" y="357" type="curve" smooth="yes"/>
      <point x="75.332" y="596"/>
      <point x="204.839" y="716"/>
    </contour>
  </outline>
</glyph>
<glyph name="one" format="2">
  <advance width="595"/>
  <unicode hex="0031"/>
  <outline>
    <contour>
      <point x="271.738" y="588" type="curve"/>
      <point x="161.634" y="70" type="line"/>
      <point x="7.63379" y="70" type="line"/>
      <point x="-7.24512" y="0" type="line"/>
      <point x="475.755" y="0" type="line"/>
      <point x="490.634" y="70" type="line"/>
      <point x="353.634" y="70" type="line"/>
      <point x="489.245" y="708" type="line"/>
      <point x="355.245" y="708" type="line"/>
      <point x="291.381" y="671"/>
      <point x="196.453" y="629"/>
      <point x="124.776" y="607" type="curve"/>
      <point x="100.971" y="495" type="line"/>
      <point x="168.371" y="511"/>
      <point x="234.811" y="546"/>
    </contour>
  </outline>
</glyph>
<glyph name="two" format="2">
  <advance width="595"/>
  <unicode hex="0032"/>
  <outline>
    <contour>
      <point x="103.917" y="654" type="line"/>
      <point x="184.27" y="698"/>
      <point x="248.096" y="716"/>
      <point x="340.096" y="716" type="curve" smooth="yes"/>
      <point x="486.096" y="716"/>
      <point x="596.979" y="659"/>
      <point x="564.671" y="507" type="curve" smooth="yes"/>
      <point x="540.652" y="394"/>
      <point x="439.01" y="311"/>
      <point x="287.242" y="218" type="curve" smooth="yes"/>
      <point x="175.788" y="150" type="line"/>
      <point x="405.788" y="150" type="line"/>
      <point x="451.729" y="225" type="line" smooth="yes"/>
      <point x="465.406" y="247"/>
      <point x="480.682" y="253"/>
      <point x="497.469" y="252" type="curve" smooth="yes"/>
      <point x="533.044" y="250" type="line"/>
      <point x="465.904" y="0" type="line"/>
      <point x="-35.0957" y="0" type="line"/>
      <point x="-13.2021" y="103" type="line"/>
      <point x="198.208" y="279" type="line" smooth="yes"/>
      <point x="280.662" y="347"/>
      <point x="354.541" y="417"/>
      <point x="373.884" y="508" type="curve" smooth="yes"/>
      <point x="392.589" y="596"/>
      <point x="340.028" y="631"/>
      <point x="269.028" y="631" type="curve" smooth="yes"/>
      <point x="209.028" y="631"/>
      <point x="169.202" y="613"/>
      <point x="113.188" y="580" type="curve"/>
    </contour>
  </outline>
</glyph>
<glyph name="three" format="2">
  <advance width="595"/>
  <unicode hex="0033"/>
  <outline>
    <contour>
      <point x="148.096" y="708" type="line"/>
      <point x="605.096" y="708" type="line"/>
      <point x="581.927" y="599" type="line"/>
      <point x="371.353" y="394" type="line"/>
      <point x="515.502" y="390"/>
      <point x="562.198" y="318"/>
      <point x="538.604" y="207" type="curve" smooth="yes"/>
      <point x="511.185" y="78"/>
      <point x="387.904" y="-8"/>
      <point x="211.904" y="-8" type="curve" smooth="yes"/>
      <point x="93.9043" y="-8"/>
      <point x="20.9434" y="11"/>
      <point x="-30.042" y="44" type="curve"/>
      <point x="17.0879" y="134" type="line"/>
      <point x="63.498" y="103"/>
      <point x="105.185" y="78"/>
      <point x="190.185" y="78" type="curve" smooth="yes"/>
      <point x="274.185" y="78"/>
      <point x="330.025" y="129"/>
      <point x="344.691" y="198" type="curve" smooth="yes"/>
      <point x="362.759" y="283"/>
      <point x="321.474" y="324"/>
      <point x="261.474" y="324" type="curve" smooth="yes"/>
      <point x="231.474" y="324" type="line"/>
      <point x="245.928" y="392" type="line"/>
      <point x="427.337" y="568" type="line"/>
      <point x="198.337" y="568" type="line"/>
      <point x="177.932" y="472" type="line"/>
      <point x="97.9316" y="472" type="line"/>
    </contour>
  </outline>
</glyph>
<glyph name="four" format="2">
  <advance width="595"/>
  <unicode hex="0034"/>
  <outline>
    <contour>
      <point x="311.245" y="708" type="line"/>
      <point x="514.245" y="708" type="line"/>
      <point x="165.682" y="249" type="line"/>
      <point x="288.682" y="249" type="line"/>
      <point x="320.353" y="398" type="line"/>
      <point x="512.353" y="398" type="line"/>
      <point x="480.682" y="249" type="line"/>
      <point x="556.682" y="249" type="line"/>
      <point x="545.629" y="197" type="line"/>
      <point x="465.803" y="179" type="line"/>
      <point x="442.634" y="70" type="line"/>
      <point x="498.634" y="70" type="line"/>
      <point x="483.755" y="0" type="line"/>
      <point x="179.755" y="0" type="line"/>
      <point x="194.634" y="70" type="line"/>
      <point x="250.634" y="70" type="line"/>
      <point x="273.803" y="179" type="line"/>
      <point x="-11.1973" y="179" type="line"/>
      <point x="3.68164" y="249" type="line"/>
    </contour>
  </outline>
</glyph>
<glyph name="five" format="2">
  <advance width="595"/>
  <unicode hex="0035"/>
  <outline>
    <contour>
      <point x="163.096" y="708" type="line"/>
      <point x="584.096" y="708" type="line"/>
      <point x="546.086" y="548" type="line"/>
      <point x="216.086" y="548" type="line"/>
      <point x="172.14" y="393" type="line"/>
      <point x="224.792" y="429"/>
      <point x="281.618" y="447"/>
      <point x="342.618" y="447" type="curve" smooth="yes"/>
      <point x="476.618" y="447"/>
      <point x="556.464" y="371"/>
      <point x="527.556" y="235" type="curve" smooth="yes"/>
      <point x="498.224" y="97"/>
      <point x="387.904" y="-8"/>
      <point x="181.904" y="-8" type="curve" smooth="yes"/>
      <point x="89.9043" y="-8"/>
      <point x="26.7305" y="10"/>
      <point x="-29.4678" y="42" type="curve"/>
      <point x="0.575195" y="141" type="line"/>
      <point x="44.1357" y="106"/>
      <point x="94.3975" y="79"/>
      <point x="167.397" y="79" type="curve" smooth="yes"/>
      <point x="247.397" y="79"/>
      <point x="311.6" y="127"/>
      <point x="333.918" y="232" type="curve" smooth="yes"/>
      <point x="351.773" y="316"/>
      <point x="318.551" y="362"/>
      <point x="254.551" y="362" type="curve" smooth="yes"/>
      <point x="207.551" y="362"/>
      <point x="181.725" y="344"/>
      <point x="163.111" y="327" type="curve"/>
      <point x="60.1113" y="327" type="line"/>
    </contour>
  </outline>
</glyph>
<glyph name="six" format="2">
  <advance width="595"/>
  <unicode hex="0036"/>
  <outline>
    <contour>
      <point x="528.265" y="719" type="curve"/>
      <point x="522.873" y="656" type="line"/>
      <point x="394.685" y="641"/>
      <point x="266.115" y="516"/>
      <point x="220.033" y="398" type="curve"/>
      <point x="247.961" y="440"/>
      <point x="297.976" y="473"/>
      <point x="376.976" y="473" type="curve" smooth="yes"/>
      <point x="511.976" y="473"/>
      <point x="576.846" y="383"/>
      <point x="546.45" y="240" type="curve" smooth="yes"/>
      <point x="512.44" y="80"/>
      <point x="385.735" y="-8"/>
      <point x="215.735" y="-8" type="curve" smooth="yes"/>
      <point x="48.7354" y="-8"/>
      <point x="-30.3086" y="100"/>
      <point x="6.46387" y="273" type="curve" smooth="yes"/>
      <point x="69.168" y="568"/>
      <point x="301.863" y="703"/>
    </contour>
    <contour>
      <point x="304.396" y="395" type="curve" smooth="yes"/>
      <point x="246.396" y="395"/>
      <point x="212.918" y="341"/>
      <point x="191.875" y="242" type="curve" smooth="yes"/>
      <point x="165.943" y="120"/>
      <point x="175.614" y="62"/>
      <point x="230.614" y="62" type="curve" smooth="yes"/>
      <point x="290.614" y="62"/>
      <point x="328.943" y="120"/>
      <point x="352.962" y="233" type="curve" smooth="yes"/>
      <point x="375.067" y="337"/>
      <point x="361.396" y="395"/>
    </contour>
  </outline>
</glyph>
<glyph name="seven" format="2">
  <advance width="595"/>
  <unicode hex="0037"/>
  <outline>
    <contour>
      <point x="138.245" y="708" type="line"/>
      <point x="610.245" y="708" type="line"/>
      <point x="578.361" y="558" type="line"/>
      <point x="266.755" y="0" type="line"/>
      <point x="29.7549" y="0" type="line"/>
      <point x="470.236" y="548" type="line"/>
      <point x="87.2363" y="548" type="line"/>
    </contour>
  </outline>
</glyph>
<glyph name="eight" format="2">
  <advance width="595"/>
  <unicode hex="0038"/>
  <outline>
    <contour>
      <point x="373.689" y="719" type="curve" smooth="yes"/>
      <point x="529.689" y="719"/>
      <point x="611.11" y="641"/>
      <point x="586.304" y="529" type="curve" smooth="yes"/>
      <point x="557.097" y="401"/>
      <point x="474.483" y="384"/>
      <point x="400.507" y="370" type="curve"/>
      <point x="470.02" y="363"/>
      <point x="563.667" y="319"/>
      <point x="536.247" y="190" type="curve" smooth="yes"/>
      <point x="507.765" y="56"/>
      <point x="376.311" y="-12"/>
      <point x="218.311" y="-12" type="curve" smooth="yes"/>
      <point x="60.3105" y="-12"/>
      <point x="-39.4482" y="55"/>
      <point x="-10.9658" y="189" type="curve" smooth="yes"/>
      <point x="17.0918" y="321"/>
      <point x="105.956" y="358"/>
      <point x="184.507" y="370" type="curve"/>
      <point x="112.271" y="383"/>
      <point x="61.8359" y="428"/>
      <point x="83.3037" y="529" type="curve" smooth="yes"/>
      <point x="107.535" y="643"/>
      <point x="216.689" y="719"/>
    </contour>
    <contour>
      <point x="358.811" y="649" type="curve" smooth="yes"/>
      <point x="305.811" y="649"/>
      <point x="281.245" y="604"/>
      <point x="264.879" y="527" type="curve" smooth="yes"/>
      <point x="251.487" y="464"/>
      <point x="248.797" y="409"/>
      <point x="307.797" y="409" type="curve" smooth="yes"/>
      <point x="367.797" y="409"/>
      <point x="390.487" y="464"/>
      <point x="403.879" y="527" type="curve" smooth="yes"/>
      <point x="420.245" y="604"/>
      <point x="411.811" y="649"/>
    </contour>
    <contour>
      <point x="289.942" y="325" type="curve" smooth="yes"/>
      <point x="218.942" y="325"/>
      <point x="196.977" y="264"/>
      <point x="181.885" y="193" type="curve" smooth="yes"/>
      <point x="165.306" y="115"/>
      <point x="167.04" y="62"/>
      <point x="234.04" y="62" type="curve" smooth="yes"/>
      <point x="301.04" y="62"/>
      <point x="328.306" y="115"/>
      <point x="344.885" y="193" type="curve" smooth="yes"/>
      <point x="360.188" y="265"/>
      <point x="362.942" y="325"/>
    </contour>
  </outline>
</glyph>
<glyph name="nine" format="2">
  <advance width="595"/>
  <unicode hex="0039"/>
  <outline>
    <contour>
      <point x="371.265" y="716" type="curve" smooth="yes"/>
      <point x="525.265" y="716"/>
      <point x="629.56" y="628"/>
      <point x="586.836" y="427" type="curve" smooth="yes"/>
      <point x="527.319" y="147"/>
      <point x="269.688" y="17"/>
      <point x="67.7354" y="-11" type="curve"/>
      <point x="66.9141" y="51" type="line"/>
      <point x="230.016" y="75"/>
      <point x="356.01" y="202"/>
      <point x="381.193" y="344" type="curve"/>
      <point x="349.928" y="291"/>
      <point x="291.913" y="258"/>
      <point x="204.913" y="258" type="curve" smooth="yes"/>
      <point x="66.9131" y="258"/>
      <point x="22.4062" y="345"/>
      <point x="51.5264" y="482" type="curve" smooth="yes"/>
      <point x="82.3467" y="627"/>
      <point x="227.265" y="716"/>
    </contour>
    <contour>
      <point x="356.386" y="646" type="curve" smooth="yes"/>
      <point x="298.386" y="646"/>
      <point x="265.845" y="587"/>
      <point x="243.526" y="482" type="curve" smooth="yes"/>
      <point x="217.382" y="359"/>
      <point x="249.643" y="332"/>
      <point x="289.643" y="332" type="curve" smooth="yes"/>
      <point x="338.643" y="332"/>
      <point x="382.082" y="367"/>
      <point x="406.526" y="482" type="curve" smooth="yes"/>
      <point x="430.12" y="593"/>
      <point x="419.386" y="646"/>
    </contour>
  </outline>
</glyph>
<glyph name="A" format="2">
  <advance width="721"/>
  <unicode hex="0041"/>
  <anchor x="447.954" y="876" name="AccentCenter"/>
  <outline>
    <contour>
      <point x="525.245" y="708" type="line"/>
      <point x="603.634" y="70" type="line"/>
      <point x="648.634" y="70" type="line"/>
      <point x="633.755" y="0" type="line"/>
      <point x="369.755" y="0" type="line"/>
      <point x="384.634" y="70" type="line"/>
      <point x="428.634" y="70" type="line"/>
      <point x="418.465" y="168" type="line"/>
      <point x="143.465" y="168" type="line"/>
      <point x="89.6338" y="70" type="line"/>
      <point x="146.634" y="70" type="line"/>
      <point x="131.755" y="0" type="line"/>
      <point x="-63.2451" y="0" type="line"/>
      <point x="-48.3662" y="70" type="line"/>
      <point x="-12.3662" y="70" type="line"/>
      <point x="318.24" y="628" type="line"/>
      <point x="335.245" y="708" type="line"/>
    </contour>
    <contour>
      <point x="375.864" y="598" type="line"/>
      <point x="186.02" y="260" type="line"/>
      <point x="414.02" y="260" type="line"/>
      <point x="381.864" y="598" type="line"/>
    </contour>
  </outline>
</glyph>
<glyph name="B" format="2">
  <advance width="693"/>
  <unicode hex="0042"/>
  <outline>
    <contour>
      <point x="116.245" y="708" type="line"/>
      <point x="485.245" y="708" type="line" smooth="yes"/>
      <point x="617.245" y="708"/>
      <point x="703.429" y="643"/>
      <point x="679.197" y="529" type="curve" smooth="yes"/>
      <point x="660.492" y="441"/>
      <point x="601.377" y="384"/>
      <point x="520.613" y="371" type="curve"/>
      <point x="599.126" y="364"/>
      <point x="664.072" y="312"/>
      <point x="639.629" y="197" type="curve" smooth="yes"/>
      <point x="613.484" y="74"/>
      <point x="497.755" y="0"/>
      <point x="357.755" y="0" type="curve" smooth="yes"/>
      <point x="-35.2451" y="0" type="line"/>
      <point x="-20.1533" y="71" type="line"/>
      <point x="35.8467" y="71" type="line"/>
      <point x="156.366" y="638" type="line"/>
      <point x="101.366" y="638" type="line"/>
    </contour>
    <contour>
      <point x="348.366" y="638" type="line"/>
      <point x="299.903" y="410" type="line"/>
      <point x="353.903" y="410" type="line" smooth="yes"/>
      <point x="425.903" y="410"/>
      <point x="471.256" y="454"/>
      <point x="485.497" y="521" type="curve" smooth="yes"/>
      <point x="502.076" y="599"/>
      <point x="476.366" y="638"/>
      <point x="403.366" y="638" type="curve" smooth="yes"/>
    </contour>
    <contour>
      <point x="286.3" y="346" type="line"/>
      <point x="227.847" y="71" type="line"/>
      <point x="292.847" y="71" type="line" smooth="yes"/>
      <point x="373.847" y="71"/>
      <point x="431.262" y="120"/>
      <point x="449.542" y="206" type="curve" smooth="yes"/>
      <point x="470.797" y="306"/>
      <point x="428.3" y="346"/>
      <point x="351.3" y="346" type="curve" smooth="yes"/>
    </contour>
  </outline>
</glyph>
<glyph name="C" format="2">
  <advance width="677"/>
  <unicode hex="0043"/>
  <outline>
    <contour>
      <point x="465.945" y="716" type="curve" smooth="yes"/>
      <point x="554.945" y="716"/>
      <point x="646.568" y="686"/>
      <point x="699.129" y="651" type="curve"/>
      <point x="661.72" y="475" type="line"/>
      <point x="515.72" y="475" type="line"/>
      <point x="549.729" y="635" type="line"/>
      <point x="529.004" y="641"/>
      <point x="510.642" y="644"/>
      <point x="489.642" y="644" type="curve"/>
      <point x="379.642" y="644"/>
      <point x="266.086" y="552"/>
      <point x="223.575" y="352" type="curve" smooth="yes"/>
      <point x="188.716" y="188"/>
      <point x="264.76" y="80"/>
      <point x="400.76" y="80" type="curve" smooth="yes"/>
      <point x="463.76" y="80"/>
      <point x="539.711" y="108"/>
      <point x="579.75" y="127" type="curve"/>
      <point x="564.233" y="54" type="line"/>
      <point x="499.069" y="25"/>
      <point x="435.055" y="-8"/>
      <point x="317.055" y="-8" type="curve" smooth="yes"/>
      <point x="96.0547" y="-8"/>
      <point x="-16.6758" y="125"/>
      <point x="31.5752" y="352" type="curve" smooth="yes"/>
      <point x="85.9893" y="608"/>
      <point x="280.945" y="716"/>
    </contour>
  </outline>
</glyph>
<glyph name="D" format="2">
  <advance width="727"/>
  <unicode hex="0044"/>
  <outline>
    <contour>
      <point x="115.245" y="708" type="line"/>
      <point x="425.245" y="708" type="line" smooth="yes"/>
      <point x="653.245" y="708"/>
      <point x="740.062" y="566"/>
      <point x="696.488" y="361" type="curve" smooth="yes"/>
      <point x="649.088" y="138"/>
      <point x="501.755" y="0"/>
      <point x="270.755" y="0" type="curve" smooth="yes"/>
      <point x="-35.2451" y="0" type="line"/>
      <point x="-20.3662" y="70" type="line"/>
      <point x="35.6338" y="70" type="line"/>
      <point x="156.366" y="638" type="line"/>
      <point x="100.366" y="638" type="line"/>
    </contour>
    <contour>
      <point x="348.366" y="638" type="line"/>
      <point x="227.634" y="70" type="line"/>
      <point x="263.634" y="70" type="line" smooth="yes"/>
      <point x="382.634" y="70"/>
      <point x="468.354" y="191"/>
      <point x="504.913" y="363" type="curve" smooth="yes"/>
      <point x="539.772" y="527"/>
      <point x="499.366" y="638"/>
      <point x="386.366" y="638" type="curve" smooth="yes"/>
    </contour>
  </outline>
</glyph>
<glyph name="E" format="2">
  <advance width="703"/>
  <unicode hex="0045"/>
  <anchor x="393.805" y="880" name="AccentCenter"/>
  <outline>
    <contour>
      <point x="139.245" y="708" type="line"/>
      <point x="694.245" y="708" type="line"/>
      <point x="658.961" y="542" type="line"/>
      <point x="558.961" y="542" type="line"/>
      <point x="579.366" y="638" type="line"/>
      <point x="382.366" y="638" type="line"/>
      <point x="331.99" y="401" type="line"/>
      <point x="464.99" y="401" type="line"/>
      <point x="482.207" y="482" type="line"/>
      <point x="552.207" y="482" type="line"/>
      <point x="503.319" y="252" type="line"/>
      <point x="433.319" y="252" type="line"/>
      <point x="450.536" y="333" type="line"/>
      <point x="317.536" y="333" type="line"/>
      <point x="261.634" y="70" type="line"/>
      <point x="487.634" y="70" type="line"/>
      <point x="511.44" y="182" type="line"/>
      <point x="611.44" y="182" type="line"/>
      <point x="572.755" y="0" type="line"/>
      <point x="-11.2451" y="0" type="line"/>
      <point x="3.63379" y="70" type="line"/>
      <point x="68.6338" y="70" type="line"/>
      <point x="189.366" y="638" type="line"/>
      <point x="124.366" y="638" type="line"/>
    </contour>
  </outline>
</glyph>
<glyph name="F" format="2">
  <advance width="640"/>
  <unicode hex="0046"/>
  <outline>
    <contour>
      <point x="115.245" y="708" type="line"/>
      <point x="683.245" y="708" type="line"/>
      <point x="640.733" y="508" type="line"/>
      <point x="544.733" y="508" type="line"/>
      <point x="572.366" y="638" type="line"/>
      <point x="350.366" y="638" type="line"/>
      <point x="300.203" y="402" type="line"/>
      <point x="526.203" y="402" type="line"/>
      <point x="511.324" y="332" type="line"/>
      <point x="285.324" y="332" type="line"/>
      <point x="229.634" y="70" type="line"/>
      <point x="339.634" y="70" type="line"/>
      <point x="324.755" y="0" type="line"/>
      <point x="-35.2451" y="0" type="line"/>
      <point x="-20.3662" y="70" type="line"/>
      <point x="36.6338" y="70" type="line"/>
      <point x="157.366" y="638" type="line"/>
      <point x="100.366" y="638" type="line"/>
    </contour>
  </outline>
</glyph>
<glyph name="G" format="2">
  <advance width="717"/>
  <unicode hex="0047"/>
  <outline>
    <contour>
      <point x="497.945" y="716" type="curve" smooth="yes"/>
      <point x="582.945" y="716"/>
      <point x="643.332" y="699"/>
      <point x="706.404" y="657" type="curve"/>
      <point x="671.971" y="495" type="line"/>
      <point x="515.971" y="495" type="line"/>
      <point x="548.491" y="648" type="line"/>
      <point x="537.491" y="648"/>
      <point x="525.491" y="648"/>
      <point x="506.491" y="648" type="curve" smooth="yes"/>
      <point x="370.491" y="648"/>
      <point x="259.072" y="519"/>
      <point x="223.575" y="352" type="curve" smooth="yes"/>
      <point x="179.788" y="146"/>
      <point x="246.658" y="56"/>
      <point x="359.658" y="56" type="curve"/>
      <point x="376.658" y="56"/>
      <point x="385.083" y="58"/>
      <point x="392.509" y="60" type="curve"/>
      <point x="447.561" y="319" type="line"/>
      <point x="347.561" y="319" type="line"/>
      <point x="362.439" y="389" type="line"/>
      <point x="706.439" y="389" type="line"/>
      <point x="686.561" y="319" type="line"/>
      <point x="634.561" y="319" type="line"/>
      <point x="569.73" y="14" type="line"/>
      <point x="512.605" y="4"/>
      <point x="450.055" y="-8"/>
      <point x="370.055" y="-8" type="curve" smooth="yes"/>
      <point x="129.055" y="-8"/>
      <point x="-23.9023" y="91"/>
      <point x="31.5752" y="352" type="curve" smooth="yes"/>
      <point x="78.125" y="571"/>
      <point x="265.945" y="716"/>
    </contour>
  </outline>
</glyph>
<glyph name="H" format="2">
  <advance width="780"/>
  <unicode hex="0048"/>
  <outline>
    <contour>
      <point x="419.245" y="708" type="line"/>
      <point x="404.366" y="638" type="line"/>
      <point x="348.366" y="638" type="line"/>
      <point x="300.753" y="414" type="line"/>
      <point x="504.753" y="414" type="line"/>
      <point x="552.366" y="638" type="line"/>
      <point x="496.366" y="638" type="line"/>
      <point x="511.245" y="708" type="line"/>
      <point x="815.245" y="708" type="line"/>
      <point x="800.366" y="638" type="line"/>
      <point x="744.366" y="638" type="line"/>
      <point x="623.634" y="70" type="line"/>
      <point x="679.634" y="70" type="line"/>
      <point x="664.755" y="0" type="line"/>
      <point x="360.755" y="0" type="line"/>
      <point x="375.634" y="70" type="line"/>
      <point x="431.634" y="70" type="line"/>
      <point x="489.874" y="344" type="line"/>
      <point x="285.874" y="344" type="line"/>
      <point x="227.634" y="70" type="line"/>
      <point x="283.634" y="70" type="line"/>
      <point x="268.755" y="0" type="line"/>
      <point x="-35.2451" y="0" type="line"/>
      <point x="-20.3662" y="70" type="line"/>
      <point x="35.6338" y="70" type="line"/>
      <point x="156.366" y="638" type="line"/>
      <point x="100.366" y="638" type="line"/>
      <point x="115.245" y="708" type="line"/>
    </contour>
  </outline>
</glyph>
<glyph name="I" format="2">
  <advance width="384"/>
  <unicode hex="0049"/>
  <anchor x="297.805" y="880" name="AccentCenter"/>
  <outline>
    <contour>
      <point x="115.245" y="708" type="line"/>
      <point x="419.245" y="708" type="line"/>
      <point x="404.366" y="638" type="line"/>
      <point x="348.366" y="638" type="line"/>
      <point x="227.634" y="70" type="line"/>
      <point x="283.634" y="70" type="line"/>
      <point x="268.755" y="0" type="line"/>
      <point x="-35.2451" y="0" type="line"/>
      <point x="-20.3662" y="70" type="line"/>
      <point x="35.6338" y="70" type="line"/>
      <point x="156.366" y="638" type="line"/>
      <point x="100.366" y="638" type="line"/>
    </contour>
  </outline>
</glyph>
<glyph name="J" format="2">
  <advance width="425"/>
  <unicode hex="004A"/>
  <outline>
    <contour>
      <point x="122.096" y="708" type="line"/>
      <point x="437.096" y="708" type="line"/>
      <point x="340.595" y="254" type="line" smooth="yes"/>
      <point x="298.934" y="58"/>
      <point x="200.904" y="-8"/>
      <point x="52.9043" y="-8" type="curve" smooth="yes"/>
      <point x="3.9043" y="-8"/>
      <point x="-52.7568" y="3"/>
      <point x="-61.332" y="5" type="curve"/>
      <point x="-43.791" y="64" type="line"/>
      <point x="4.99609" y="63" type="line" smooth="yes"/>
      <point x="74.5713" y="61"/>
      <point x="115.436" y="98"/>
      <point x="133.078" y="181" type="curve" smooth="yes"/>
      <point x="230.216" y="638" type="line"/>
      <point x="107.216" y="638" type="line"/>
    </contour>
  </outline>
</glyph>
<glyph name="K" format="2">
  <advance width="751"/>
  <unicode hex="004B"/>
  <outline>
    <contour>
      <point x="115.245" y="708" type="line"/>
      <point x="412.245" y="708" type="line"/>
      <point x="397.366" y="638" type="line"/>
      <point x="341.366" y="638" type="line"/>
      <point x="281.213" y="355" type="line"/>
      <point x="584.366" y="638" type="line"/>
      <point x="540.366" y="638" type="line"/>
      <point x="555.245" y="708" type="line"/>
      <point x="766.245" y="708" type="line"/>
      <point x="751.366" y="638" type="line"/>
      <point x="686.366" y="638" type="line"/>
      <point x="423.928" y="396" type="line"/>
      <point x="615.634" y="70" type="line"/>
      <point x="666.634" y="70" type="line"/>
      <point x="651.755" y="0" type="line"/>
      <point x="457.755" y="0" type="line"/>
      <point x="275.435" y="309" type="line"/>
      <point x="271.435" y="309" type="line"/>
      <point x="220.634" y="70" type="line"/>
      <point x="276.634" y="70" type="line"/>
      <point x="261.755" y="0" type="line"/>
      <point x="-35.2451" y="0" type="line"/>
      <point x="-20.3662" y="70" type="line"/>
      <point x="35.6338" y="70" type="line"/>
      <point x="156.366" y="638" type="line"/>
      <point x="100.366" y="638" type="line"/>
    </contour>
  </outline>
</glyph>
<glyph name="L" format="2">
  <advance width="623"/>
  <unicode hex="004C"/>
  <outline>
    <contour>
      <point x="115.245" y="708" type="line"/>
      <point x="419.245" y="708" type="line"/>
      <point x="404.366" y="638" type="line"/>
      <point x="348.366" y="638" type="line"/>
      <point x="227.634" y="70" type="line"/>
      <point x="446.634" y="70" type="line"/>
      <point x="472.778" y="193" type="line"/>
      <point x="568.778" y="193" type="line"/>
      <point x="527.755" y="0" type="line"/>
      <point x="-35.2451" y="0" type="line"/>
      <point x="-20.3662" y="70" type="line"/>
      <point x="35.6338" y="70" type="line"/>
      <point x="156.366" y="638" type="line"/>
      <point x="100.366" y="638" type="line"/>
    </contour>
  </outline>
</glyph>
<glyph name="M" format="2">
  <advance width="951"/>
  <unicode hex="004D"/>
  <outline>
    <contour>
      <point x="115.245" y="708" type="line"/>
      <point x="361.245" y="708" type="line"/>
      <point x="442.508" y="267" type="line"/>
      <point x="720.245" y="708" type="line"/>
      <point x="986.245" y="708" type="line"/>
      <point x="971.366" y="638" type="line"/>
      <point x="915.366" y="638" type="line"/>
      <point x="794.634" y="70" type="line"/>
      <point x="850.634" y="70" type="line"/>
      <point x="835.755" y="0" type="line"/>
      <point x="531.755" y="0" type="line"/>
      <point x="546.634" y="70" type="line"/>
      <point x="602.634" y="70" type="line"/>
      <point x="687.231" y="468" type="line"/>
      <point x="488.639" y="150" type="line"/>
      <point x="279.639" y="150" type="line"/>
      <point x="226.646" y="517" type="line"/>
      <point x="131.634" y="70" type="line"/>
      <point x="187.634" y="70" type="line"/>
      <point x="172.755" y="0" type="line"/>
      <point x="-35.2451" y="0" type="line"/>
      <point x="-20.3662" y="70" type="line"/>
      <point x="35.6338" y="70" type="line"/>
      <point x="156.366" y="638" type="line"/>
      <point x="100.366" y="638" type="line"/>
    </contour>
  </outline>
</glyph>
<glyph name="N" format="2">
  <advance width="762"/>
  <unicode hex="004E"/>
  <outline>
    <contour>
      <point x="115.245" y="708" type="line"/>
      <point x="343.245" y="708" type="line"/>
      <point x="541.904" y="203" type="line"/>
      <point x="634.579" y="639" type="line"/>
      <point x="578.579" y="639" type="line"/>
      <point x="593.245" y="708" type="line"/>
      <point x="805.245" y="708" type="line"/>
      <point x="790.366" y="638" type="line"/>
      <point x="734.366" y="638" type="line"/>
      <point x="606.619" y="37" type="line"/>
      <point x="423.755" y="0" type="line"/>
      <point x="225.545" y="493" type="line"/>
      <point x="135.634" y="70" type="line"/>
      <point x="191.634" y="70" type="line"/>
      <point x="176.755" y="0" type="line"/>
      <point x="-35.2451" y="0" type="line"/>
      <point x="-20.3662" y="70" type="line"/>
      <point x="35.6338" y="70" type="line"/>
      <point x="156.366" y="638" type="line"/>
      <point x="100.366" y="638" type="line"/>
    </contour>
  </outline>
</glyph>
<glyph name="O" format="2">
  <advance width="728"/>
  <unicode hex="004F"/>
  <anchor x="473.167" y="877" name="AccentCenter"/>
  <outline>
    <contour>
      <point x="441.945" y="716" type="curve" smooth="yes"/>
      <point x="646.945" y="716"/>
      <point x="744.038" y="580"/>
      <point x="696.638" y="357" type="curve" smooth="yes"/>
      <point x="648.6" y="131"/>
      <point x="489.055" y="-8"/>
      <point x="287.055" y="-8" type="curve" smooth="yes"/>
      <point x="85.0547" y="-8"/>
      <point x="-15.1875" y="132"/>
      <point x="32.6377" y="357" type="curve" smooth="yes"/>
      <point x="80.0381" y="580"/>
      <point x="236.945" y="716"/>
    </contour>
    <contour>
      <point x="426.066" y="646" type="curve" smooth="yes"/>
      <point x="338.066" y="646"/>
      <point x="266.724" y="555"/>
      <point x="224.638" y="357" type="curve" smooth="yes"/>
      <point x="180.851" y="151"/>
      <point x="215.934" y="62"/>
      <point x="302.934" y="62" type="curve" smooth="yes"/>
      <point x="388.934" y="62"/>
      <point x="460.639" y="150"/>
      <point x="504.425" y="356" type="curve" smooth="yes"/>
      <point x="546.724" y="555"/>
      <point x="514.066" y="646"/>
    </contour>
  </outline>
</glyph>
<glyph name="P" format="2">
  <advance width="712"/>
  <unicode hex="0050"/>
  <outline>
    <contour>
      <point x="115.245" y="708" type="line"/>
      <point x="486.245" y="708" type="line" smooth="yes"/>
      <point x="639.245" y="708"/>
      <point x="740.791" y="640"/>
      <point x="707.42" y="483" type="curve" smooth="yes"/>
      <point x="677.662" y="343"/>
      <point x="545.72" y="268"/>
      <point x="392.72" y="268" type="curve" smooth="yes"/>
      <point x="269.72" y="268" type="line"/>
      <point x="227.634" y="70" type="line"/>
      <point x="283.634" y="70" type="line"/>
      <point x="268.755" y="0" type="line"/>
      <point x="-35.2451" y="0" type="line"/>
      <point x="-20.3662" y="70" type="line"/>
      <point x="35.6338" y="70" type="line"/>
      <point x="156.366" y="638" type="line"/>
      <point x="100.366" y="638" type="line"/>
    </contour>
    <contour>
      <point x="348.366" y="638" type="line"/>
      <point x="284.174" y="336" type="line"/>
      <point x="338.174" y="336" type="line" smooth="yes"/>
      <point x="422.174" y="336"/>
      <point x="498.526" y="380"/>
      <point x="521.058" y="486" type="curve" smooth="yes"/>
      <point x="543.801" y="593"/>
      <point x="486.366" y="638"/>
      <point x="402.366" y="638" type="curve" smooth="yes"/>
    </contour>
  </outline>
</glyph>
<glyph name="Q" format="2">
  <advance width="724"/>
  <unicode hex="0051"/>
  <outline>
    <contour>
      <point x="461.075" y="716" type="curve" smooth="yes"/>
      <point x="666.075" y="716"/>
      <point x="759.168" y="580"/>
      <point x="711.768" y="357" type="curve" smooth="yes"/>
      <point x="666.706" y="145"/>
      <point x="527.498" y="17"/>
      <point x="342.609" y="-6" type="curve"/>
      <point x="639.958" y="-42" type="line"/>
      <point x="586.925" y="-188" type="line"/>
      <point x="200.122" y="-13" type="line" smooth="yes"/>
      <point x="59.7256" y="51"/>
      <point x="18.9951" y="184"/>
      <point x="55.7676" y="357" type="curve" smooth="yes"/>
      <point x="103.168" y="580"/>
      <point x="256.075" y="716"/>
    </contour>
    <contour>
      <point x="445.196" y="646" type="curve" smooth="yes"/>
      <point x="357.196" y="646"/>
      <point x="289.854" y="555"/>
      <point x="247.768" y="357" type="curve" smooth="yes"/>
      <point x="203.981" y="151"/>
      <point x="235.063" y="62"/>
      <point x="322.063" y="62" type="curve" smooth="yes"/>
      <point x="408.063" y="62"/>
      <point x="475.769" y="150"/>
      <point x="519.556" y="356" type="curve" smooth="yes"/>
      <point x="561.854" y="555"/>
      <point x="533.196" y="646"/>
    </contour>
  </outline>
</glyph>
<glyph name="R" format="2">
  <advance width="742"/>
  <unicode hex="0052"/>
  <outline>
    <contour>
      <point x="115.245" y="708" type="line"/>
      <point x="496.245" y="708" type="line" smooth="yes"/>
      <point x="649.245" y="708"/>
      <point x="737.729" y="635"/>
      <point x="709.671" y="503" type="curve" smooth="yes"/>
      <point x="683.526" y="380"/>
      <point x="599.923" y="316"/>
      <point x="498.884" y="297" type="curve"/>
      <point x="594.634" y="70" type="line"/>
      <point x="665.634" y="70" type="line"/>
      <point x="650.755" y="0" type="line"/>
      <point x="451.755" y="0" type="line"/>
      <point x="409.557" y="32" type="line"/>
      <point x="321.546" y="286" type="line"/>
      <point x="281.546" y="286" type="line"/>
      <point x="235.634" y="70" type="line"/>
      <point x="291.634" y="70" type="line"/>
      <point x="276.755" y="0" type="line"/>
      <point x="-35.2451" y="0" type="line"/>
      <point x="-20.3662" y="70" type="line"/>
      <point x="43.6338" y="70" type="line"/>
      <point x="164.366" y="638" type="line"/>
      <point x="100.366" y="638" type="line"/>
    </contour>
    <contour>
      <point x="296.213" y="355" type="line"/>
      <point x="348.213" y="355" type="line" smooth="yes"/>
      <point x="425.213" y="355"/>
      <point x="496.415" y="403"/>
      <point x="515.971" y="495" type="curve" smooth="yes"/>
      <point x="537.651" y="597"/>
      <point x="482.366" y="638"/>
      <point x="408.366" y="638" type="curve" smooth="yes"/>
      <point x="356.366" y="638" type="line"/>
    </contour>
  </outline>
</glyph>
<glyph name="S" format="2">
  <advance width="636"/>
  <unicode hex="0053"/>
  <outline>
    <contour>
      <point x="406.945" y="716" type="curve" smooth="yes"/>
      <point x="505.945" y="716"/>
      <point x="573.844" y="692"/>
      <point x="637.129" y="651" type="curve"/>
      <point x="606.946" y="509" type="line"/>
      <point x="466.946" y="509" type="line"/>
      <point x="492.516" y="634" type="line"/>
      <point x="463.066" y="646"/>
      <point x="445.704" y="649"/>
      <point x="417.704" y="649" type="curve" smooth="yes"/>
      <point x="320.704" y="649"/>
      <point x="287.014" y="594"/>
      <point x="277.448" y="549" type="curve" smooth="yes"/>
      <point x="265.545" y="493"/>
      <point x="275.405" y="450"/>
      <point x="349.792" y="433" type="curve" smooth="yes"/>
      <point x="398.454" y="422" type="line" smooth="yes"/>
      <point x="554.015" y="387"/>
      <point x="603.049" y="326"/>
      <point x="577.967" y="208" type="curve" smooth="yes"/>
      <point x="548.209" y="68"/>
      <point x="420.055" y="-8"/>
      <point x="206.055" y="-8" type="curve" smooth="yes"/>
      <point x="118.055" y="-8"/>
      <point x="22.6436" y="23"/>
      <point x="-26.9795" y="53" type="curve"/>
      <point x="4.05371" y="199" type="line"/>
      <point x="137.054" y="199" type="line"/>
      <point x="113.035" y="86" type="line"/>
      <point x="138.847" y="71"/>
      <point x="177.509" y="60"/>
      <point x="233.509" y="60" type="curve" smooth="yes"/>
      <point x="304.509" y="60"/>
      <point x="375.098" y="91"/>
      <point x="390.189" y="162" type="curve" smooth="yes"/>
      <point x="402.942" y="222"/>
      <point x="382.17" y="256"/>
      <point x="298.783" y="273" type="curve" smooth="yes"/>
      <point x="250.908" y="283" type="line" smooth="yes"/>
      <point x="112.072" y="312"/>
      <point x="51.251" y="374"/>
      <point x="79.0957" y="505" type="curve" smooth="yes"/>
      <point x="106.941" y="636"/>
      <point x="212.945" y="716"/>
    </contour>
  </outline>
</glyph>
<glyph name="T" format="2">
  <advance width="685"/>
  <unicode hex="0054"/>
  <outline>
    <contour>
      <point x="99.2451" y="708" type="line"/>
      <point x="736.245" y="708" type="line"/>
      <point x="686.72" y="475" type="line"/>
      <point x="586.72" y="475" type="line"/>
      <point x="621.366" y="638" type="line"/>
      <point x="498.366" y="638" type="line"/>
      <point x="377.634" y="70" type="line"/>
      <point x="466.634" y="70" type="line"/>
      <point x="451.755" y="0" type="line"/>
      <point x="81.7549" y="0" type="line"/>
      <point x="96.6338" y="70" type="line"/>
      <point x="185.634" y="70" type="line"/>
      <point x="306.366" y="638" type="line"/>
      <point x="183.366" y="638" type="line"/>
      <point x="148.72" y="475" type="line"/>
      <point x="49.7197" y="475" type="line"/>
    </contour>
  </outline>
</glyph>
<glyph name="U" format="2">
  <advance width="771"/>
  <unicode hex="0055"/>
  <anchor x="391.242" y="880" name="AccentCenter"/>
  <outline>
    <contour>
      <point x="109.883" y="708" type="line"/>
      <point x="413.883" y="708" type="line"/>
      <point x="399.004" y="638" type="line"/>
      <point x="343.004" y="638" type="line"/>
      <point x="256.28" y="230" type="line" smooth="yes"/>
      <point x="233.962" y="125"/>
      <point x="287.122" y="74"/>
      <point x="365.122" y="74" type="curve" smooth="yes"/>
      <point x="443.122" y="74"/>
      <point x="516.663" y="133"/>
      <point x="537.28" y="230" type="curve" smooth="yes"/>
      <point x="624.004" y="638" type="line"/>
      <point x="568.004" y="638" type="line"/>
      <point x="582.883" y="708" type="line"/>
      <point x="802.883" y="708" type="line"/>
      <point x="788.004" y="638" type="line"/>
      <point x="732.004" y="638" type="line"/>
      <point x="651.444" y="259" type="line" smooth="yes"/>
      <point x="610.209" y="65"/>
      <point x="452.117" y="-6"/>
      <point x="310.117" y="-6" type="curve" smooth="yes"/>
      <point x="167.117" y="-6"/>
      <point x="29.6338" y="67"/>
      <point x="75.9717" y="285" type="curve" smooth="yes"/>
      <point x="151.216" y="639" type="line"/>
      <point x="95.2158" y="639" type="line"/>
    </contour>
  </outline>
</glyph>
<glyph name="V" format="2">
  <advance width="756"/>
  <unicode hex="0056"/>
  <outline>
    <contour>
      <point x="85.2451" y="708" type="line"/>
      <point x="391.245" y="708" type="line"/>
      <point x="376.366" y="638" type="line"/>
      <point x="299.366" y="638" type="line"/>
      <point x="368.373" y="97" type="line"/>
      <point x="644.366" y="638" type="line"/>
      <point x="598.366" y="638" type="line"/>
      <point x="613.245" y="708" type="line"/>
      <point x="821.245" y="708" type="line"/>
      <point x="806.366" y="638" type="line"/>
      <point x="750.366" y="638" type="line"/>
      <point x="410.755" y="0" type="line"/>
      <point x="196.755" y="0" type="line"/>
      <point x="126.366" y="638" type="line"/>
      <point x="70.3662" y="638" type="line"/>
    </contour>
  </outline>
</glyph>
<glyph name="W" format="2">
  <advance width="1073"/>
  <unicode hex="0057"/>
  <outline>
    <contour>
      <point x="91.3516" y="708" type="line"/>
      <point x="402.352" y="708" type="line"/>
      <point x="387.473" y="638" type="line"/>
      <point x="310.473" y="638" type="line"/>
      <point x="330.267" y="96" type="line"/>
      <point x="589.352" y="708" type="line"/>
      <point x="715.352" y="708" type="line"/>
      <point x="749.267" y="96" type="line"/>
      <point x="962.473" y="638" type="line"/>
      <point x="906.473" y="638" type="line"/>
      <point x="921.352" y="708" type="line"/>
      <point x="1132.35" y="708" type="line"/>
      <point x="1117.47" y="638" type="line"/>
      <point x="1058.47" y="638" type="line"/>
      <point x="798.861" y="0" type="line"/>
      <point x="573.648" y="-1" type="line"/>
      <point x="564.473" y="431" type="line"/>
      <point x="379.861" y="0" type="line"/>
      <point x="175.861" y="0" type="line"/>
      <point x="137.473" y="638" type="line"/>
      <point x="76.4727" y="638" type="line"/>
    </contour>
  </outline>
</glyph>
<glyph name="X" format="2">
  <advance width="678"/>
  <unicode hex="0058"/>
  <outline>
    <contour>
      <point x="87.2451" y="708" type="line"/>
      <point x="72.3662" y="638" type="line"/>
      <point x="122.366" y="638" type="line"/>
      <point x="236.22" y="338.612" type="line"/>
      <point x="22.6338" y="70" type="line"/>
      <point x="-48.3662" y="70" type="line"/>
      <point x="-63.2451" y="0" type="line"/>
      <point x="185.755" y="0" type="line"/>
      <point x="200.634" y="70" type="line"/>
      <point x="117.634" y="70" type="line"/>
      <point x="268.266" y="265.224" type="line"/>
      <point x="336.634" y="70" type="line"/>
      <point x="295.634" y="70" type="line"/>
      <point x="280.755" y="0" type="line"/>
      <point x="590.755" y="0" type="line"/>
      <point x="605.634" y="70" type="line"/>
      <point x="544.634" y="70" type="line"/>
      <point x="437.073" y="354.978" type="line"/>
      <point x="658.366" y="638" type="line"/>
      <point x="726.366" y="638" type="line"/>
      <point x="741.245" y="708" type="line"/>
      <point x="492.245" y="708" type="line"/>
      <point x="477.366" y="638" type="line"/>
      <point x="563.366" y="638" type="line"/>
      <point x="404.821" y="428.836" type="line"/>
      <point x="330.366" y="638" type="line"/>
      <point x="395.366" y="638" type="line"/>
      <point x="410.245" y="708" type="line"/>
    </contour>
  </outline>
</glyph>
<glyph name="Y" format="2">
  <advance width="701"/>
  <unicode hex="0059"/>
  <anchor x="429.805" y="880" name="AccentCenter"/>
  <outline>
    <contour>
      <point x="87.2451" y="708" type="line"/>
      <point x="412.245" y="708" type="line"/>
      <point x="397.366" y="638" type="line"/>
      <point x="345.366" y="638" type="line"/>
      <point x="398.676" y="376" type="line"/>
      <point x="567.366" y="638" type="line"/>
      <point x="509.366" y="638" type="line"/>
      <point x="524.245" y="708" type="line"/>
      <point x="764.245" y="708" type="line"/>
      <point x="749.366" y="638" type="line"/>
      <point x="655.366" y="638" type="line"/>
      <point x="445.285" y="313" type="line"/>
      <point x="393.634" y="70" type="line"/>
      <point x="467.634" y="70" type="line"/>
      <point x="452.755" y="0" type="line"/>
      <point x="112.755" y="0" type="line"/>
      <point x="127.634" y="70" type="line"/>
      <point x="201.634" y="70" type="line"/>
      <point x="253.285" y="313" type="line"/>
      <point x="144.366" y="638" type="line"/>
      <point x="72.3662" y="638" type="line"/>
    </contour>
  </outline>
</glyph>
<glyph name="Z" format="2">
  <advance width="658"/>
  <unicode hex="005A"/>
  <outline>
    <contour>
      <point x="115.245" y="708" type="line"/>
      <point x="693.245" y="708" type="line"/>
      <point x="680.917" y="650" type="line"/>
      <point x="210.634" y="70" type="line"/>
      <point x="461.634" y="70" type="line"/>
      <point x="482.252" y="167" type="line"/>
      <point x="578.252" y="167" type="line"/>
      <point x="542.755" y="0" type="line"/>
      <point x="-35.2451" y="0" type="line"/>
      <point x="-23.1289" y="57" type="line"/>
      <point x="461.366" y="638" type="line"/>
      <point x="196.366" y="638" type="line"/>
      <point x="175.748" y="541" type="line"/>
      <point x="79.748" y="541" type="line"/>
    </contour>
  </outline>
</glyph>
<glyph name="bracketleft" format="2">
  <advance width="382"/>
  <unicode hex="005B"/>
  <outline>
    <contour>
      <point x="154.844" y="819" type="line"/>
      <point x="444.844" y="819" type="line"/>
      <point x="429.965" y="749" type="line"/>
      <point x="299.965" y="749" type="line"/>
      <point x="142.035" y="6" type="line"/>
      <point x="272.035" y="6" type="line"/>
      <point x="257.156" y="-64" type="line"/>
      <point x="-32.8438" y="-64" type="line"/>
    </contour>
  </outline>
</glyph>
<glyph name="bracketright" format="2">
  <advance width="382"/>
  <unicode hex="005D"/>
  <outline>
    <contour>
      <point x="124.844" y="819" type="line"/>
      <point x="414.844" y="819" type="line"/>
      <point x="227.156" y="-64" type="line"/>
      <point x="-62.8438" y="-64" type="line"/>
      <point x="-47.9648" y="6" type="line"/>
      <point x="82.0352" y="6" type="line"/>
      <point x="239.965" y="749" type="line"/>
      <point x="109.965" y="749" type="line"/>
    </contour>
  </outline>
</glyph>
<glyph name="a" format="2">
  <advance width="566"/>
  <unicode hex="0061"/>
  <anchor x="357.762" y="687" name="AccentCenter"/>
  <anchor x="347.762" y="687" name="Ring"/>
  <outline>
    <contour>
      <point x="254" y="528" type="curve"/>
      <point x="319" y="528"/>
      <point x="348" y="495"/>
      <point x="364" y="475" type="curve"/>
      <point x="375" y="528" type="line"/>
      <point x="548" y="490" type="line"/>
      <point x="457" y="69" type="line"/>
      <point x="535" y="46" type="line"/>
      <point x="519" y="0" type="line"/>
      <point x="363" y="0" type="line"/>
      <point x="334" y="8"/>
      <point x="302" y="22"/>
      <point x="287" y="43" type="curve"/>
      <point x="283" y="63" type="line"/>
      <point x="176" y="-8" type="line"/>
      <point x="85" y="-8"/>
      <point x="4" y="38"/>
      <point x="4" y="186" type="curve" smooth="yes"/>
      <point x="4" y="364"/>
      <point x="84" y="528"/>
    </contour>
    <contour>
      <point x="305" y="441" type="curve"/>
      <point x="233" y="441"/>
      <point x="184" y="367"/>
      <point x="184" y="190" type="curve"/>
      <point x="184" y="144"/>
      <point x="188" y="103"/>
      <point x="221" y="92" type="curve"/>
      <point x="289" y="130" type="line"/>
      <point x="353" y="421" type="line"/>
      <point x="346" y="430"/>
      <point x="328" y="441"/>
    </contour>
  </outline>
</glyph>
<glyph name="b" format="2">
  <advance width="634"/>
  <unicode hex="0062"/>
  <guideline x="0" y="260" angle="0" name="ItalicCenter" identifier="fontra-guideline-0"/>
  <outline>
    <contour>
      <point x="89" y="687" type="line"/>
      <point x="337" y="708" type="line"/>
      <point x="292" y="494" type="line"/>
      <point x="324" y="511"/>
      <point x="355" y="528"/>
      <point x="419" y="528" type="curve" smooth="yes"/>
      <point x="534" y="528"/>
      <point x="588" y="466"/>
      <point x="588" y="358" type="curve" smooth="yes"/>
      <point x="588" y="60"/>
      <point x="398" y="-8"/>
      <point x="257" y="-8" type="curve" smooth="yes"/>
      <point x="141" y="-8"/>
      <point x="82" y="13"/>
      <point x="12" y="65" type="curve"/>
      <point x="134" y="638" type="line"/>
      <point x="78" y="638" type="line"/>
    </contour>
    <contour>
      <point x="343" y="448" type="curve" smooth="yes"/>
      <point x="310" y="448"/>
      <point x="293" y="436"/>
      <point x="277" y="427" type="curve"/>
      <point x="204" y="80" type="line"/>
      <point x="217" y="67"/>
      <point x="225" y="61"/>
      <point x="258" y="61" type="curve" smooth="yes"/>
      <point x="335" y="61"/>
      <point x="402" y="150"/>
      <point x="402" y="352" type="curve" smooth="yes"/>
      <point x="402" y="413"/>
      <point x="383" y="448"/>
    </contour>
  </outline>
</glyph>
<glyph name="c" format="2">
  <advance width="550"/>
  <unicode hex="0063"/>
  <guideline x="0" y="260" angle="0" name="ItalicCenter" identifier="fontra-guideline-0"/>
  <outline>
    <contour>
      <point x="347" y="528" type="curve" smooth="yes"/>
      <point x="421" y="528"/>
      <point x="491" y="507"/>
      <point x="532" y="463" type="curve"/>
      <point x="476" y="302" type="line"/>
      <point x="344" y="317" type="line"/>
      <point x="390" y="456" type="line"/>
      <point x="383" y="459"/>
      <point x="374" y="461"/>
      <point x="361" y="461" type="curve"/>
      <point x="293" y="461"/>
      <point x="216" y="413"/>
      <point x="216" y="209" type="curve" smooth="yes"/>
      <point x="216" y="133"/>
      <point x="252" y="75"/>
      <point x="334" y="75" type="curve" smooth="yes"/>
      <point x="394" y="75"/>
      <point x="422" y="89"/>
      <point x="464" y="105" type="curve"/>
      <point x="454" y="35" type="line"/>
      <point x="400" y="6"/>
      <point x="339" y="-8"/>
      <point x="249" y="-8" type="curve" smooth="yes"/>
      <point x="89" y="-8"/>
      <point x="24" y="79"/>
      <point x="24" y="208" type="curve" smooth="yes"/>
      <point x="24" y="422"/>
      <point x="166" y="528"/>
    </contour>
  </outline>
</glyph>
<glyph name="d" format="2">
  <advance width="605.9708395125224"/>
  <unicode hex="0064"/>
  <guideline x="0" y="260" angle="0" name="ItalicCenter" identifier="fontra-guideline-0"/>
  <outline>
    <contour>
      <point x="390.06683951252245" y="708" type="line"/>
      <point x="368.18683951252245" y="638" type="line"/>
      <point x="447.18683951252245" y="638" type="line"/>
      <point x="414.66583951252244" y="485" type="line"/>
      <point x="388.97983951252246" y="510"/>
      <point x="356" y="528"/>
      <point x="298.8058395125224" y="528" type="curve" smooth="yes"/>
      <point x="184" y="528"/>
      <point x="13" y="466"/>
      <point x="13" y="159" type="curve" smooth="yes"/>
      <point x="13" y="64"/>
      <point x="54" y="-8"/>
      <point x="167.87483951252244" y="-8" type="curve" smooth="yes"/>
      <point x="236" y="-8"/>
      <point x="288.82683951252244" y="20"/>
      <point x="337.5798395125224" y="80" type="curve"/>
      <point x="349.57583951252246" y="0" type="line"/>
      <point x="555.5758395125224" y="0" type="line"/>
      <point x="570.4548395125224" y="70" type="line"/>
      <point x="514.4548395125224" y="70" type="line"/>
      <point x="650.0668395125224" y="708" type="line"/>
    </contour>
    <contour>
      <point x="334.01383951252245" y="449" type="curve" smooth="yes"/>
      <point x="367.01383951252245" y="449"/>
      <point x="383.88883951252245" y="439"/>
      <point x="401.06283951252243" y="421" type="curve"/>
      <point x="342.60983951252246" y="146" type="line"/>
      <point x="326.0198395125224" y="115"/>
      <point x="299" y="92"/>
      <point x="263" y="92" type="curve" smooth="yes"/>
      <point x="214" y="92"/>
      <point x="197" y="122"/>
      <point x="197" y="162" type="curve" smooth="yes"/>
      <point x="197" y="382"/>
      <point x="269.01383951252245" y="449"/>
    </contour>
  </outline>
</glyph>
<glyph name="e" format="2">
  <advance width="569"/>
  <unicode hex="0065"/>
  <anchor x="393.762" y="687" name="AccentCenter"/>
  <outline>
    <contour>
      <point x="314" y="528" type="curve" smooth="yes"/>
      <point x="420" y="528"/>
      <point x="523" y="486"/>
      <point x="523" y="347" type="curve" smooth="yes"/>
      <point x="523" y="338"/>
      <point x="522" y="314"/>
      <point x="520" y="306" type="curve"/>
      <point x="211" y="218" type="line"/>
      <point x="220" y="124"/>
      <point x="258" y="68"/>
      <point x="341" y="68" type="curve" smooth="yes"/>
      <point x="389" y="68"/>
      <point x="419" y="77"/>
      <point x="460" y="97" type="curve"/>
      <point x="464" y="32" type="line"/>
      <point x="414" y="6"/>
      <point x="365" y="-8"/>
      <point x="278" y="-8" type="curve" smooth="yes"/>
      <point x="107" y="-8"/>
      <point x="28" y="90"/>
      <point x="28" y="223" type="curve" smooth="yes"/>
      <point x="28" y="463"/>
      <point x="187" y="528"/>
    </contour>
    <contour>
      <point x="302" y="462" type="curve" smooth="yes"/>
      <point x="234" y="462"/>
      <point x="213" y="351"/>
      <point x="213" y="293" type="curve"/>
      <point x="356" y="335" type="line"/>
      <point x="356" y="361" type="line" smooth="yes"/>
      <point x="356" y="419"/>
      <point x="343" y="462"/>
    </contour>
  </outline>
</glyph>
<glyph name="f" format="2">
  <advance width="435"/>
  <unicode hex="0066"/>
  <outline>
    <contour>
      <point x="518.858" y="646" type="line"/>
      <point x="538.201" y="737" type="line"/>
      <point x="498.39" y="752"/>
      <point x="469.453" y="757"/>
      <point x="428.453" y="757" type="curve" smooth="yes"/>
      <point x="294.453" y="757"/>
      <point x="179.999" y="689"/>
      <point x="153.43" y="564" type="curve" smooth="yes"/>
      <point x="144.077" y="520" type="line"/>
      <point x="55.4873" y="489" type="line"/>
      <point x="46.7725" y="448" type="line"/>
      <point x="128.772" y="448" type="line"/>
      <point x="48.4268" y="70" type="line"/>
      <point x="-28.5732" y="70" type="line"/>
      <point x="-43.4531" y="0" type="line"/>
      <point x="304.547" y="0" type="line"/>
      <point x="319.427" y="70" type="line"/>
      <point x="240.427" y="70" type="line"/>
      <point x="320.772" y="448" type="line"/>
      <point x="443.772" y="448" type="line"/>
      <point x="459.077" y="520" type="line"/>
      <point x="335.077" y="520" type="line"/>
      <point x="369.299" y="681" type="line"/>
    </contour>
  </outline>
</glyph>
<glyph name="g" format="2">
  <advance width="620"/>
  <unicode hex="0067"/>
  <outline>
    <contour>
      <point x="319" y="528" type="curve" smooth="yes"/>
      <point x="380" y="528"/>
      <point x="449" y="516"/>
      <point x="487" y="457" type="curve"/>
      <point x="523" y="519" type="line"/>
      <point x="651" y="536" type="line"/>
      <point x="630" y="429" type="line"/>
      <point x="508" y="417" type="line"/>
      <point x="512" y="404"/>
      <point x="514" y="383"/>
      <point x="509" y="359" type="curve" smooth="yes"/>
      <point x="486" y="254"/>
      <point x="392" y="186"/>
      <point x="242" y="186" type="curve" smooth="yes"/>
      <point x="226" y="186"/>
      <point x="216" y="186"/>
      <point x="201" y="186" type="curve"/>
      <point x="168" y="183"/>
      <point x="141" y="181"/>
      <point x="138" y="167" type="curve" smooth="yes"/>
      <point x="135" y="153"/>
      <point x="154" y="151"/>
      <point x="181" y="149" type="curve" smooth="yes"/>
      <point x="382" y="138" type="line" smooth="yes"/>
      <point x="516" y="131"/>
      <point x="553" y="72"/>
      <point x="536" y="-8" type="curve" smooth="yes"/>
      <point x="509" y="-134"/>
      <point x="378" y="-192"/>
      <point x="199" y="-192" type="curve" smooth="yes"/>
      <point x="13" y="-192"/>
      <point x="-65" y="-128"/>
      <point x="-52" y="-34" type="curve"/>
      <point x="66" y="32" type="line"/>
      <point x="55" y="33" type="line" smooth="yes"/>
      <point x="-9" y="39"/>
      <point x="-12" y="72"/>
      <point x="-3" y="116" type="curve" smooth="yes"/>
      <point x="9" y="171"/>
      <point x="68" y="202"/>
      <point x="122" y="210" type="curve"/>
      <point x="57" y="235"/>
      <point x="33" y="283"/>
      <point x="49" y="359" type="curve" smooth="yes"/>
      <point x="72" y="469"/>
      <point x="189" y="528"/>
    </contour>
    <contour>
      <point x="92" y="-34" type="line"/>
      <point x="94" y="-75"/>
      <point x="123" y="-126"/>
      <point x="230" y="-126" type="curve" smooth="yes"/>
      <point x="317" y="-126"/>
      <point x="356" y="-97"/>
      <point x="366" y="-49" type="curve" smooth="yes"/>
      <point x="377" y="4"/>
      <point x="340" y="14"/>
      <point x="300" y="16" type="curve" smooth="yes"/>
      <point x="179" y="23" type="line"/>
    </contour>
    <contour>
      <point x="305" y="465" type="curve" smooth="yes"/>
      <point x="262" y="465"/>
      <point x="227" y="428"/>
      <point x="213" y="359" type="curve" smooth="yes"/>
      <point x="197" y="284"/>
      <point x="217" y="249"/>
      <point x="259" y="249" type="curve" smooth="yes"/>
      <point x="301" y="249"/>
      <point x="338" y="286"/>
      <point x="354" y="359" type="curve" smooth="yes"/>
      <point x="368" y="427"/>
      <point x="346" y="465"/>
    </contour>
  </outline>
</glyph>
<glyph name="h" format="2">
  <advance width="718"/>
  <unicode hex="0068"/>
  <outline>
    <contour>
      <point x="117.192" y="660" type="line"/>
      <point x="383.096" y="716" type="line"/>
      <point x="313" y="388" type="line"/>
      <point x="351" y="496"/>
      <point x="452" y="528"/>
      <point x="524" y="528" type="curve" smooth="yes"/>
      <point x="604" y="528"/>
      <point x="653" y="481"/>
      <point x="653" y="398" type="curve" smooth="yes"/>
      <point x="653" y="381"/>
      <point x="651" y="362"/>
      <point x="646.599" y="342" type="curve" smooth="yes"/>
      <point x="588.784" y="70" type="line"/>
      <point x="652.784" y="70" type="line"/>
      <point x="637.904" y="0" type="line"/>
      <point x="382" y="0" type="line"/>
      <point x="460" y="366" type="line" smooth="yes"/>
      <point x="462" y="375"/>
      <point x="463" y="383"/>
      <point x="463" y="391" type="curve" smooth="yes"/>
      <point x="463" y="418"/>
      <point x="450" y="433"/>
      <point x="426" y="433" type="curve" smooth="yes"/>
      <point x="369" y="433"/>
      <point x="304" y="343"/>
      <point x="277" y="216" type="curve" smooth="yes"/>
      <point x="244" y="62" type="line"/>
      <point x="309" y="62" type="line"/>
      <point x="295" y="0" type="line"/>
      <point x="40" y="0" type="line"/>
      <point x="170.202" y="613" type="line"/>
      <point x="104.438" y="600" type="line"/>
    </contour>
  </outline>
</glyph>
<glyph name="i" format="2">
  <advance width="352"/>
  <unicode hex="0069"/>
  <outline>
    <contour>
      <point x="274.965" y="743" type="curve" smooth="yes"/>
      <point x="330.965" y="743"/>
      <point x="361.825" y="700"/>
      <point x="350.134" y="645" type="curve" smooth="yes"/>
      <point x="338.231" y="589"/>
      <point x="289.729" y="549"/>
      <point x="233.729" y="549" type="curve" smooth="yes"/>
      <point x="178.729" y="549"/>
      <point x="144.231" y="589"/>
      <point x="156.134" y="645" type="curve" smooth="yes"/>
      <point x="167.825" y="700"/>
      <point x="219.965" y="743"/>
    </contour>
    <component base="dotlessi" yxScale="0.212557" xOffset="-74.9648"/>
  </outline>
</glyph>
<glyph name="j" format="2">
  <advance width="326"/>
  <unicode hex="006A"/>
  <outline>
    <contour>
      <point x="67.4385" y="520" type="line"/>
      <point x="337.438" y="520" type="line"/>
      <point x="231.586" y="22" type="line" smooth="yes"/>
      <point x="200.765" y="-123"/>
      <point x="115.311" y="-191"/>
      <point x="-74.6895" y="-191" type="curve" smooth="yes"/>
      <point x="-95.6895" y="-191" type="line"/>
      <point x="-79.96" y="-117" type="line"/>
      <point x="-58.96" y="-117" type="line" smooth="yes"/>
      <point x="-22.96" y="-117"/>
      <point x="17.4795" y="-82"/>
      <point x="25.1318" y="-46" type="curve" smooth="yes"/>
      <point x="130.56" y="450" type="line"/>
      <point x="52.5596" y="450" type="line"/>
    </contour>
    <contour>
      <point x="288.689" y="747" type="curve" smooth="yes"/>
      <point x="341.689" y="747"/>
      <point x="376.549" y="704"/>
      <point x="365.283" y="651" type="curve" smooth="yes"/>
      <point x="354.019" y="598"/>
      <point x="300.666" y="554"/>
      <point x="247.666" y="554" type="curve" smooth="yes"/>
      <point x="194.666" y="554"/>
      <point x="160.019" y="598"/>
      <point x="171.283" y="651" type="curve" smooth="yes"/>
      <point x="182.549" y="704"/>
      <point x="235.689" y="747"/>
    </contour>
  </outline>
</glyph>
<glyph name="k" format="2">
  <advance width="683"/>
  <unicode hex="006B"/>
  <outline>
    <contour>
      <point x="125.245" y="708" type="line"/>
      <point x="374.245" y="708" type="line"/>
      <point x="281.357" y="271" type="line"/>
      <point x="497.405" y="450" type="line"/>
      <point x="411.405" y="450" type="line"/>
      <point x="426.284" y="520" type="line"/>
      <point x="674.284" y="520" type="line"/>
      <point x="659.405" y="450" type="line"/>
      <point x="603.405" y="450" type="line"/>
      <point x="421.672" y="296" type="line"/>
      <point x="594.634" y="70" type="line"/>
      <point x="638.634" y="70" type="line"/>
      <point x="623.755" y="0" type="line"/>
      <point x="427.755" y="0" type="line"/>
      <point x="276.58" y="225" type="line"/>
      <point x="271.58" y="225" type="line"/>
      <point x="238.634" y="70" type="line"/>
      <point x="312.634" y="70" type="line"/>
      <point x="297.755" y="0" type="line"/>
      <point x="-25.2451" y="0" type="line"/>
      <point x="-10.3662" y="70" type="line"/>
      <point x="53.6338" y="70" type="line"/>
      <point x="174.366" y="638" type="line"/>
      <point x="110.366" y="638" type="line"/>
    </contour>
  </outline>
</glyph>
<glyph name="l" format="2">
  <advance width="386"/>
  <unicode hex="006C"/>
  <outline>
    <contour>
      <point x="109" y="772" type="line"/>
      <point x="382" y="772" type="line"/>
      <point x="244" y="97" type="line"/>
      <point x="334" y="115" type="line"/>
      <point x="318" y="40" type="line"/>
      <point x="97" y="-8" type="line"/>
      <point x="51" y="-8"/>
      <point x="41" y="12"/>
      <point x="41" y="37" type="curve" smooth="yes"/>
      <point x="41" y="61"/>
      <point x="50" y="92"/>
      <point x="55" y="113" type="curve" smooth="yes"/>
      <point x="177" y="682" type="line"/>
      <point x="90" y="682" type="line"/>
    </contour>
  </outline>
</glyph>
<glyph name="m" format="2">
  <advance width="992"/>
  <unicode hex="006D"/>
  <outline>
    <contour>
      <point x="62" y="487" type="line"/>
      <point x="302" y="528" type="line"/>
      <point x="260.13128662109375" y="309.9338073730469" type="line"/>
      <point x="287.88818359375" y="430.6459655761719"/>
      <point x="364.5077209472656" y="528"/>
      <point x="497" y="528" type="curve" smooth="yes"/>
      <point x="571" y="528"/>
      <point x="618" y="484"/>
      <point x="618" y="400" type="curve" smooth="yes"/>
      <point x="618" y="392.9670104980469"/>
      <point x="617.775634765625" y="385.5975341796875"/>
      <point x="617.2518920898438" y="377.92913818359375" type="curve"/>
      <point x="655.2122192382812" y="465.1962890625"/>
      <point x="725.5841674804688" y="528"/>
      <point x="832" y="528" type="curve" smooth="yes"/>
      <point x="906" y="528"/>
      <point x="953" y="484"/>
      <point x="953" y="400" type="curve" smooth="yes"/>
      <point x="953" y="379"/>
      <point x="951" y="355"/>
      <point x="945" y="329" type="curve" smooth="yes"/>
      <point x="890" y="80" type="line"/>
      <point x="956" y="86" type="line"/>
      <point x="947" y="26" type="line"/>
      <point x="683" y="0" type="line"/>
      <point x="751" y="322" type="line" smooth="yes"/>
      <point x="754" y="337"/>
      <point x="756" y="350"/>
      <point x="756" y="362" type="curve" smooth="yes"/>
      <point x="756" y="390"/>
      <point x="746" y="407"/>
      <point x="721" y="407" type="curve" smooth="yes"/>
      <point x="662.068359375" y="407"/>
      <point x="609.4788208007812" y="296.6472473144531"/>
      <point x="575.8580932617188" y="174.43023681640625" type="curve"/>
      <point x="555" y="80" type="line"/>
      <point x="621" y="86" type="line"/>
      <point x="612" y="26" type="line"/>
      <point x="348" y="0" type="line"/>
      <point x="416" y="322" type="line" smooth="yes"/>
      <point x="419" y="337"/>
      <point x="421" y="350"/>
      <point x="421" y="362" type="curve" smooth="yes"/>
      <point x="421" y="390"/>
      <point x="411" y="407"/>
      <point x="386" y="407" type="curve" smooth="yes"/>
      <point x="312" y="407"/>
      <point x="248" y="233"/>
      <point x="219" y="80" type="curve" smooth="yes"/>
      <point x="204" y="0" type="line"/>
      <point x="21" y="0" type="line"/>
      <point x="112" y="429" type="line"/>
      <point x="47" y="419" type="line"/>
    </contour>
  </outline>
</glyph>
<glyph name="n" format="2">
  <advance width="665"/>
  <unicode hex="006E"/>
  <guideline x="0" y="260" angle="0" name="ItalicCenter" identifier="fontra-guideline-0"/>
  <anchor x="441.911" y="687" name="AccentCenter"/>
  <outline>
    <contour>
      <point x="59" y="487" type="line"/>
      <point x="299" y="528" type="line"/>
      <point x="251" y="278" type="line"/>
      <point x="272" y="413"/>
      <point x="350" y="528"/>
      <point x="494" y="528" type="curve" smooth="yes"/>
      <point x="568" y="528"/>
      <point x="615" y="484"/>
      <point x="615" y="400" type="curve" smooth="yes"/>
      <point x="615" y="379"/>
      <point x="613" y="355"/>
      <point x="607" y="329" type="curve" smooth="yes"/>
      <point x="552" y="80" type="line"/>
      <point x="618" y="86" type="line"/>
      <point x="609" y="26" type="line"/>
      <point x="345" y="0" type="line"/>
      <point x="413" y="322" type="line" smooth="yes"/>
      <point x="416" y="337"/>
      <point x="418" y="350"/>
      <point x="418" y="362" type="curve" smooth="yes"/>
      <point x="418" y="390"/>
      <point x="408" y="407"/>
      <point x="383" y="407" type="curve" smooth="yes"/>
      <point x="309" y="407"/>
      <point x="245" y="233"/>
      <point x="216" y="80" type="curve" smooth="yes"/>
      <point x="201" y="0" type="line"/>
      <point x="18" y="0" type="line"/>
      <point x="109" y="429" type="line"/>
      <point x="44" y="419" type="line"/>
    </contour>
  </outline>
</glyph>
<glyph name="o" format="2">
  <advance width="619"/>
  <unicode hex="006F"/>
  <anchor x="406.762" y="687" name="AccentCenter"/>
  <outline>
    <contour>
      <point x="349.086" y="458" type="curve" smooth="yes"/>
      <point x="286.086" y="458"/>
      <point x="247.807" y="372"/>
      <point x="223.575" y="258" type="curve" smooth="yes"/>
      <point x="198.068" y="138"/>
      <point x="200.914" y="62"/>
      <point x="264.914" y="62" type="curve" smooth="yes"/>
      <point x="328.914" y="62"/>
      <point x="369.493" y="140"/>
      <point x="395" y="260" type="curve" smooth="yes"/>
      <point x="419.019" y="373"/>
      <point x="412.086" y="458"/>
    </contour>
    <contour>
      <point x="363.965" y="528" type="curve" smooth="yes"/>
      <point x="538.965" y="528"/>
      <point x="623.984" y="434"/>
      <point x="586.362" y="257" type="curve" smooth="yes"/>
      <point x="550.652" y="89"/>
      <point x="420.035" y="-8"/>
      <point x="250.035" y="-8" type="curve" smooth="yes"/>
      <point x="80.0352" y="-8"/>
      <point x="-4.77246" y="87"/>
      <point x="31.7871" y="259" type="curve" smooth="yes"/>
      <point x="69.1973" y="435"/>
      <point x="189.965" y="528"/>
    </contour>
  </outline>
</glyph>
<glyph name="p" format="2">
  <advance width="642"/>
  <unicode hex="0070"/>
  <outline>
    <contour>
      <point x="74" y="520" type="line"/>
      <point x="280" y="520" type="line"/>
      <point x="296" y="458" type="line"/>
      <point x="331" y="496"/>
      <point x="374" y="528"/>
      <point x="442" y="528" type="curve" smooth="yes"/>
      <point x="551" y="528"/>
      <point x="608" y="457"/>
      <point x="608" y="327" type="curve" smooth="yes"/>
      <point x="608" y="77"/>
      <point x="461" y="-8"/>
      <point x="339" y="-8" type="curve" smooth="yes"/>
      <point x="266" y="-8"/>
      <point x="237" y="1"/>
      <point x="212" y="20" type="curve"/>
      <point x="181" y="-125" type="line"/>
      <point x="237" y="-125" type="line"/>
      <point x="222" y="-195" type="line"/>
      <point x="-22" y="-195" type="line"/>
      <point x="115" y="450" type="line"/>
      <point x="59" y="450" type="line"/>
    </contour>
    <contour>
      <point x="290" y="390" type="curve"/>
      <point x="226" y="88" type="line"/>
      <point x="242" y="79"/>
      <point x="258" y="69"/>
      <point x="286" y="69" type="curve" smooth="yes"/>
      <point x="352" y="69"/>
      <point x="425" y="170"/>
      <point x="425" y="332" type="curve" smooth="yes"/>
      <point x="425" y="402"/>
      <point x="405" y="433"/>
      <point x="360" y="433" type="curve" smooth="yes"/>
      <point x="325" y="433"/>
      <point x="304" y="416"/>
    </contour>
  </outline>
</glyph>
<glyph name="q" format="2">
  <advance width="642"/>
  <unicode hex="0071"/>
  <outline>
    <contour>
      <point x="413" y="433" type="curve"/>
      <point x="343" y="105" type="line"/>
      <point x="322" y="89"/>
      <point x="309" y="79"/>
      <point x="276" y="79" type="curve" smooth="yes"/>
      <point x="220" y="79"/>
      <point x="214" y="127"/>
      <point x="214" y="164" type="curve" smooth="yes"/>
      <point x="214" y="375"/>
      <point x="293" y="451"/>
      <point x="353" y="451" type="curve" smooth="yes"/>
      <point x="378" y="451"/>
      <point x="394" y="448"/>
    </contour>
    <contour>
      <point x="341" y="528" type="curve" smooth="yes"/>
      <point x="216" y="528"/>
      <point x="30" y="465"/>
      <point x="30" y="160" type="curve" smooth="yes"/>
      <point x="30" y="58"/>
      <point x="82" y="-8"/>
      <point x="192" y="-8" type="curve" smooth="yes"/>
      <point x="256" y="-8"/>
      <point x="289" y="12"/>
      <point x="329" y="41" type="curve"/>
      <point x="279" y="-196" type="line"/>
      <point x="523" y="-196" type="line"/>
      <point x="538" y="-126" type="line"/>
      <point x="482" y="-126" type="line"/>
      <point x="600" y="430" type="line"/>
      <point x="658" y="440" type="line"/>
      <point x="675" y="520" type="line"/>
      <point x="618" y="510"/>
      <point x="559" y="499"/>
      <point x="506" y="478" type="curve"/>
      <point x="457" y="510"/>
      <point x="430" y="528"/>
    </contour>
  </outline>
</glyph>
<glyph name="r" format="2">
  <advance width="513"/>
  <unicode hex="0072"/>
  <guideline x="0" y="260" angle="0" name="ItalicCenter" identifier="fontra-guideline-0"/>
  <outline>
    <contour>
      <point x="294" y="528" type="line"/>
      <point x="286" y="352" type="line"/>
      <point x="333" y="432"/>
      <point x="415" y="528"/>
      <point x="510" y="528" type="curve" smooth="yes"/>
      <point x="515" y="528"/>
      <point x="521" y="528"/>
      <point x="527" y="527" type="curve"/>
      <point x="489" y="394" type="line"/>
      <point x="483" y="394" type="line"/>
      <point x="423" y="394"/>
      <point x="338" y="347"/>
      <point x="298" y="315" type="curve"/>
      <point x="231" y="0" type="line"/>
      <point x="39" y="0" type="line"/>
      <point x="132" y="431" type="line"/>
      <point x="55" y="419" type="line"/>
      <point x="71" y="492" type="line"/>
    </contour>
  </outline>
</glyph>
<glyph name="s" format="2">
  <advance width="516"/>
  <unicode hex="0073"/>
  <outline>
    <contour>
      <point x="319" y="528" type="curve" smooth="yes"/>
      <point x="391" y="528"/>
      <point x="458" y="513"/>
      <point x="513" y="474" type="curve"/>
      <point x="492" y="358" type="line"/>
      <point x="373" y="380" type="line"/>
      <point x="390" y="458" type="line"/>
      <point x="369" y="458"/>
      <point x="361" y="458"/>
      <point x="345" y="458" type="curve"/>
      <point x="293" y="458"/>
      <point x="259" y="431"/>
      <point x="248" y="381" type="curve"/>
      <point x="356" y="300" type="line" smooth="yes"/>
      <point x="439" y="238"/>
      <point x="471" y="208"/>
      <point x="471" y="137" type="curve" smooth="yes"/>
      <point x="471" y="42"/>
      <point x="377" y="-8"/>
      <point x="215" y="-8" type="curve" smooth="yes"/>
      <point x="123" y="-8"/>
      <point x="38" y="18"/>
      <point x="4" y="41" type="curve"/>
      <point x="27" y="152" type="line"/>
      <point x="155" y="152" type="line"/>
      <point x="138" y="77" type="line"/>
      <point x="152" y="67"/>
      <point x="177" y="58"/>
      <point x="208" y="58" type="curve" smooth="yes"/>
      <point x="267" y="58"/>
      <point x="301" y="85"/>
      <point x="308" y="118" type="curve"/>
      <point x="188" y="217" type="line" smooth="yes"/>
      <point x="108" y="283"/>
      <point x="77" y="311"/>
      <point x="77" y="383" type="curve" smooth="yes"/>
      <point x="77" y="491"/>
      <point x="190" y="528"/>
    </contour>
  </outline>
</glyph>
<glyph name="t" format="2">
  <advance width="426"/>
  <unicode hex="0074"/>
  <outline>
    <contour>
      <point x="143.24" y="614" type="line"/>
      <point x="350.757" y="687" type="line"/>
      <point x="315.26" y="520" type="line"/>
      <point x="424.26" y="520" type="line"/>
      <point x="408.531" y="446" type="line"/>
      <point x="299.531" y="446" type="line"/>
      <point x="235" y="139" type="line" smooth="yes"/>
      <point x="227" y="101"/>
      <point x="225" y="63"/>
      <point x="280" y="63" type="curve"/>
      <point x="298" y="63"/>
      <point x="311" y="64"/>
      <point x="328" y="67" type="curve"/>
      <point x="338" y="69" type="line"/>
      <point x="330.794" y="5" type="line"/>
      <point x="269.881" y="-4"/>
      <point x="250.243" y="-7"/>
      <point x="216.243" y="-7" type="curve" smooth="yes"/>
      <point x="75.2432" y="-7"/>
      <point x="25.2715" y="59"/>
      <point x="56.5176" y="206" type="curve" smooth="yes"/>
      <point x="107.531" y="446" type="line"/>
      <point x="29.5312" y="446" type="line"/>
      <point x="35.3711" y="497" type="line"/>
      <point x="123.26" y="520" type="line"/>
    </contour>
  </outline>
</glyph>
<glyph name="u" format="2">
  <advance width="689"/>
  <unicode hex="0075"/>
  <anchor x="346.037" y="687" name="AccentCenter"/>
  <outline>
    <contour>
      <point x="58" y="520" type="line"/>
      <point x="314" y="520" type="line"/>
      <point x="246" y="204" type="line" smooth="yes"/>
      <point x="230" y="126"/>
      <point x="236" y="104"/>
      <point x="271" y="104" type="curve" smooth="yes"/>
      <point x="330" y="104"/>
      <point x="397" y="204"/>
      <point x="417" y="296" type="curve" smooth="yes"/>
      <point x="465" y="520" type="line"/>
      <point x="656" y="520" type="line"/>
      <point x="565" y="96" type="line"/>
      <point x="628" y="96" type="line"/>
      <point x="617" y="43" type="line"/>
      <point x="389" y="-12" type="line"/>
      <point x="389" y="166" type="line"/>
      <point x="348" y="55"/>
      <point x="272" y="-8"/>
      <point x="176" y="-8" type="curve" smooth="yes"/>
      <point x="63" y="-8"/>
      <point x="24" y="61"/>
      <point x="52" y="191" type="curve" smooth="yes"/>
      <point x="107" y="450" type="line"/>
      <point x="43" y="450" type="line"/>
    </contour>
  </outline>
</glyph>
<glyph name="v" format="2">
  <advance width="620"/>
  <unicode hex="0076"/>
  <outline>
    <contour>
      <point x="35" y="520" type="line"/>
      <point x="346" y="520" type="line"/>
      <point x="331" y="450" type="line"/>
      <point x="254" y="450" type="line"/>
      <point x="284" y="78" type="line"/>
      <point x="485" y="450" type="line"/>
      <point x="429" y="450" type="line"/>
      <point x="444" y="520" type="line"/>
      <point x="655" y="520" type="line"/>
      <point x="640" y="450" type="line"/>
      <point x="581" y="450" type="line"/>
      <point x="341" y="0" type="line"/>
      <point x="116" y="0" type="line"/>
      <point x="81" y="450" type="line"/>
      <point x="20" y="450" type="line"/>
    </contour>
  </outline>
</glyph>
<glyph name="w" format="2">
  <advance width="941"/>
  <unicode hex="0077"/>
  <outline>
    <contour>
      <point x="45" y="520" type="line"/>
      <point x="177" y="520" type="line"/>
      <point x="224" y="520"/>
      <point x="253" y="493"/>
      <point x="255" y="451" type="curve" smooth="yes"/>
      <point x="265" y="192" type="line"/>
      <point x="450" y="521" type="line"/>
      <point x="606" y="521" type="line"/>
      <point x="617" y="143" type="line"/>
      <point x="778" y="451" type="line"/>
      <point x="708" y="451" type="line"/>
      <point x="723" y="520" type="line"/>
      <point x="934" y="520" type="line"/>
      <point x="919" y="451" type="line"/>
      <point x="871" y="451" type="line"/>
      <point x="623" y="0" type="line"/>
      <point x="450" y="41" type="line"/>
      <point x="444" y="381" type="line"/>
      <point x="242" y="0" type="line"/>
      <point x="107" y="41" type="line"/>
      <point x="91" y="451" type="line"/>
      <point x="30" y="451" type="line"/>
    </contour>
  </outline>
</glyph>
<glyph name="x" format="2">
  <advance width="593"/>
  <unicode hex="0078"/>
  <guideline x="0" y="260" angle="0" name="ItalicCenter" identifier="fontra-guideline-0"/>
  <outline>
    <contour>
      <point x="108" y="520" type="line"/>
      <point x="215" y="520" type="line" smooth="yes"/>
      <point x="269" y="520"/>
      <point x="309" y="498"/>
      <point x="329" y="450" type="curve" smooth="yes"/>
      <point x="383" y="321" type="line"/>
      <point x="464" y="528" type="line"/>
      <point x="640" y="520" type="line"/>
      <point x="421" y="236" type="line"/>
      <point x="491" y="70" type="line"/>
      <point x="548" y="70" type="line"/>
      <point x="533" y="0" type="line"/>
      <point x="418" y="0" type="line" smooth="yes"/>
      <point x="375" y="0"/>
      <point x="336" y="17"/>
      <point x="308" y="70" type="curve"/>
      <point x="256" y="193" type="line"/>
      <point x="163" y="-8" type="line"/>
      <point x="-14" y="0" type="line"/>
      <point x="220" y="274" type="line"/>
      <point x="147" y="450" type="line"/>
      <point x="93" y="450" type="line"/>
    </contour>
  </outline>
</glyph>
<glyph name="y" format="2">
  <advance width="630"/>
  <unicode hex="0079"/>
  <guideline x="0" y="260" angle="0" name="ItalicCenter" identifier="fontra-guideline-0"/>
  <anchor x="479" y="687" name="AccentCenter"/>
  <outline>
    <contour>
      <point x="-18" y="-72" type="line"/>
      <point x="-37" y="-183" type="line"/>
      <point x="-23" y="-188"/>
      <point x="14" y="-191"/>
      <point x="46" y="-191" type="curve"/>
      <point x="337" y="-191"/>
      <point x="608" y="166"/>
      <point x="655" y="520" type="curve"/>
      <point x="549" y="520" type="line"/>
      <point x="517" y="297"/>
      <point x="442" y="179"/>
      <point x="368" y="72" type="curve"/>
      <point x="311" y="520" type="line"/>
      <point x="86" y="520" type="line"/>
      <point x="74" y="450" type="line"/>
      <point x="139" y="450" type="line"/>
      <point x="206" y="-60" type="line"/>
      <point x="186" y="-86"/>
      <point x="123" y="-121"/>
      <point x="69" y="-121" type="curve"/>
      <point x="77" y="-72" type="line"/>
    </contour>
  </outline>
</glyph>
<glyph name="z" format="2">
  <advance width="580"/>
  <unicode hex="007A"/>
  <guideline x="0" y="260" angle="0" name="ItalicCenter" identifier="fontra-guideline-0"/>
  <outline>
    <contour>
      <point x="103.265" y="520" type="line"/>
      <point x="571.265" y="520" type="line"/>
      <point x="558.937" y="462" type="line"/>
      <point x="238.614" y="70" type="line"/>
      <point x="491.614" y="70" type="line"/>
      <point x="476.735" y="0" type="line"/>
      <point x="-7.26465" y="0" type="line"/>
      <point x="5.06348" y="58" type="line"/>
      <point x="339.386" y="450" type="line"/>
      <point x="88.3857" y="450" type="line"/>
    </contour>
  </outline>
</glyph>
<glyph name="cent" format="2">
  <advance width="550"/>
  <unicode hex="00A2"/>
  <outline>
    <contour>
      <point x="240" y="520" type="line"/>
      <point x="240" y="618" type="line"/>
      <point x="390" y="618" type="line"/>
      <point x="390" y="520" type="line"/>
    </contour>
    <contour>
      <point x="390" y="0" type="line"/>
      <point x="390" y="-94" type="line"/>
      <point x="240" y="-94" type="line"/>
      <point x="240" y="0" type="line"/>
    </contour>
    <component base="c"/>
  </outline>
</glyph>
<glyph name="sterling" format="2">
  <advance width="601"/>
  <unicode hex="00A3"/>
  <outline>
    <contour>
      <point x="352" y="716" type="curve" smooth="yes"/>
      <point x="454" y="716"/>
      <point x="521" y="672"/>
      <point x="560" y="643" type="curve"/>
      <point x="528" y="591" type="line"/>
      <point x="473" y="635"/>
      <point x="419" y="651"/>
      <point x="349" y="651" type="curve" smooth="yes"/>
      <point x="273" y="651"/>
      <point x="196" y="607"/>
      <point x="196" y="526" type="curve" smooth="yes"/>
      <point x="196" y="489"/>
      <point x="205" y="444"/>
      <point x="238" y="382" type="curve"/>
      <point x="428" y="382" type="line"/>
      <point x="428" y="312" type="line"/>
      <point x="264" y="312" type="line"/>
      <point x="269" y="292"/>
      <point x="272" y="274"/>
      <point x="272" y="258" type="curve" smooth="yes"/>
      <point x="272" y="157"/>
      <point x="229" y="107"/>
      <point x="167" y="69" type="curve"/>
      <point x="540" y="69" type="line"/>
      <point x="540" y="0" type="line"/>
      <point x="62" y="0" type="line"/>
      <point x="62" y="85" type="line"/>
      <point x="150" y="104"/>
      <point x="194" y="165"/>
      <point x="194" y="268" type="curve" smooth="yes"/>
      <point x="194" y="281"/>
      <point x="192" y="296"/>
      <point x="188" y="312" type="curve"/>
      <point x="34" y="312" type="line"/>
      <point x="34" y="382" type="line"/>
      <point x="163" y="382" type="line"/>
      <point x="143" y="422"/>
      <point x="120" y="478"/>
      <point x="120" y="526" type="curve" smooth="yes"/>
      <point x="120" y="595"/>
      <point x="180" y="716"/>
    </contour>
  </outline>
</glyph>
<glyph name="oslash" format="2">
  <advance width="619"/>
  <unicode hex="00F8"/>
  <outline>
    <contour>
      <point x="468" y="520" type="line"/>
      <point x="587" y="520" type="line"/>
      <point x="146" y="0" type="line"/>
      <point x="32" y="0" type="line"/>
    </contour>
    <component base="o"/>
  </outline>
</glyph>
<glyph name="dotlessi" format="2">
  <advance width="364"/>
  <unicode hex="0131"/>
  <anchor x="173" y="687" name="AccentCenter"/>
  <outline>
    <contour>
      <point x="52" y="520" type="line"/>
      <point x="325" y="520" type="line"/>
      <point x="240" y="97" type="line"/>
      <point x="330" y="115" type="line"/>
      <point x="314" y="40" type="line"/>
      <point x="93" y="-8" type="line"/>
      <point x="47" y="-8"/>
      <point x="37" y="12"/>
      <point x="37" y="37" type="curve" smooth="yes"/>
      <point x="37" y="61"/>
      <point x="47" y="92"/>
      <point x="51" y="113" type="curve" smooth="yes"/>
      <point x="120" y="430" type="line"/>
      <point x="33" y="430" type="line"/>
    </contour>
  </outline>
</glyph>
<glyph name="acutecomb" format="2">
  <advance width="0"/>
  <unicode hex="0301"/>
  <anchor x="31" y="830" name="_AccentCenter"/>
  <outline>
    <contour>
      <point x="105" y="922" type="line"/>
      <point x="152" y="798" type="line"/>
      <point x="-118" y="723" type="line"/>
      <point x="-163" y="796" type="line"/>
    </contour>
  </outline>
</glyph>
